/* XPM */
static char * simb25_xpm[] = {
"30 33 42 1",
" 	c #FFFFFF",
".	c #393939",
"+	c #000000",
"@	c #212121",
"#	c #F9F9F9",
"$	c #D4D4D4",
"%	c #6C6C6C",
"&	c #B8B8B8",
"*	c #9D9D9D",
"=	c #121212",
"-	c #2E2E2E",
";	c #898989",
">	c #FBFBFB",
",	c #CFCFCF",
"'	c #444444",
")	c #D1D1D1",
"!	c #F4F4F4",
"~	c #F7F7F7",
"{	c #6A6A6A",
"]	c #010101",
"^	c #0A0A0A",
"/	c #C9C9C9",
"(	c #D2D2D2",
"_	c #181818",
":	c #373737",
"<	c #191919",
"[	c #787878",
"}	c #2F2F2F",
"|	c #525252",
"1	c #252525",
"2	c #575757",
"3	c #282828",
"4	c #ADADAD",
"5	c #111111",
"6	c #424242",
"7	c #040404",
"8	c #0B0B0B",
"9	c #E9E9E9",
"0	c #080808",
"a	c #2B2B2B",
"b	c #F5F5F5",
"c	c #D9D9D9",
"                              ",
"                              ",
"  .+++++++++++++++++++++++++@ ",
"  .+++++++++++++++++++++++++@ ",
"  .+++++++++++++++++++++++++@ ",
"  .++++#######++#++++$%#++++@ ",
"  .++                    &++@ ",
"  @++                    *++= ",
"  .++   --------------;  &++@ ",
"  .++  >+++++++++++++++  &++@ ",
"  .++  ,++++++++++++++'  &++@ ",
"  .++  ,+++++++++++++++  &++@ ",
"  .++  )+++!!!  ~!!++++  &++@ ",
"  .++  ,+++        {+++  &++@ ",
"  .++  ,+++        {+++  &++@ ",
"  .++  ,+++        {+++  &++@ ",
"  .++  ,++]        {+++  &++@ ",
"  .++  ,++^        {+++  &++@ ",
"  .++  ,++^        {+++  &++@ ",
"  .++  ,++^        {+++  &++@ ",
"  .++  ,+++// (/  /+++_  &++@ ",
"  .++  ,++++++++++++++:  &++@ ",
"  .++  ,++++++++++++++<  &++@ ",
"  .++  (++++++++++++++[  &++@ ",
"  .++   }++|       1++   &++@ ",
"  .+2    3          4    &++@ ",
"  .++                    5++@ ",
"  .+++++++++++++++++++++++++@ ",
"  ++++++++++++++++++++++++++@ ",
"  .+++++++++++++++++++++++++@ ",
"  6+789888+++88++80+888780++a ",
"   b                      1c  ",
"                              "};
