/* XPM */
static char * simb18_xpm[] = {
"29 31 68 1",
" 	c #FFFFFF",
".	c #000000",
"+	c #5B5B5B",
"@	c #3E3E3E",
"#	c #373737",
"$	c #434343",
"%	c #1A1A1A",
"&	c #4D4D4D",
"*	c #F7F7F7",
"=	c #828282",
"-	c #424242",
";	c #707070",
">	c #D7D7D7",
",	c #818181",
"'	c #AEAEAE",
")	c #7E7E7E",
"!	c #838383",
"~	c #050505",
"{	c #FBFBFB",
"]	c #6C6C6C",
"^	c #A8A8A8",
"/	c #585858",
"(	c #8E8E8E",
"_	c #FCFCFC",
":	c #0C0C0C",
"<	c #4C4C4C",
"[	c #ADADAD",
"}	c #2D2D2D",
"|	c #ECECEC",
"1	c #0D0D0D",
"2	c #B7B7B7",
"3	c #E1E1E1",
"4	c #313131",
"5	c #606060",
"6	c #939393",
"7	c #575757",
"8	c #BEBEBE",
"9	c #B0B0B0",
"0	c #E5E5E5",
"a	c #383838",
"b	c #A9A9A9",
"c	c #494949",
"d	c #EAEAEA",
"e	c #7F7F7F",
"f	c #CDCDCD",
"g	c #282828",
"h	c #B3B3B3",
"i	c #222222",
"j	c #B2B2B2",
"k	c #969696",
"l	c #EFEFEF",
"m	c #F9F9F9",
"n	c #525252",
"o	c #181818",
"p	c #E3E3E3",
"q	c #999999",
"r	c #0A0A0A",
"s	c #464646",
"t	c #D9D9D9",
"u	c #B8B8B8",
"v	c #B9B9B9",
"w	c #989898",
"x	c #0F0F0F",
"y	c #212121",
"z	c #323232",
"A	c #919191",
"B	c #9F9F9F",
"C	c #DFDFDF",
"                             ",
"  .......++@#+..$....++%...& ",
" *.......................... ",
" =.-                      ;. ",
" =.        >,...,,        ;. ",
" =.        '......        ;. ",
" ).     !..~     {...     ]. ",
" =.    ^../(     _//:^    ;. ",
" =.    .<           [.    ;. ",
" =.   .}             |12  ;. ",
" =.  3.4             3.2  ;. ",
" =.  5.6              .7  ;. ",
" =. 8.9               0a@ ;. ",
" =. b.                 c. ;. ",
" =. b.                 c. ;. ",
"  . b.                 c. ;. ",
" =. b.                 c. ;. ",
" d. b.                 c. ;. ",
" =. b.e               fg. ;. ",
" =.  5.               ..  ;. ",
" =.  5.4              .h  ;. ",
" =.   .i>            j.2  ;. ",
" =.    ..           ).k   ;. ",
" l.    m...n     {o..p    !. ",
" =.     qr.stttd {..i      . ",
" =.        '.....~         . ",
" =.         uuuuuv        w. ",
" =.x                      ;. ",
"  .......................... ",
"  y.zAAAA.AAAAA.....)A...AA.B",
"                           C "};
