/* XPM */
static char * simb12_xpm[] = {
"27 29 64 1",
" 	c #FFFFFF",
".	c #262626",
"+	c #0F0F0F",
"@	c #000000",
"#	c #C1C1C1",
"$	c #636363",
"%	c #060606",
"&	c #E5E5E5",
"*	c #8D8D8D",
"=	c #FBFBFB",
"-	c #FAFAFA",
";	c #A9A9A9",
">	c #414141",
",	c #555555",
"'	c #0C0C0C",
")	c #F9F9F9",
"!	c #FCFCFC",
"~	c #D2D2D2",
"{	c #484848",
"]	c #989898",
"^	c #CDCDCD",
"/	c #C4C4C4",
"(	c #DFDFDF",
"_	c #585858",
":	c #E6E6E6",
"<	c #151515",
"[	c #ECECEC",
"}	c #DADADA",
"|	c #1C1C1C",
"1	c #070707",
"2	c #333333",
"3	c #202020",
"4	c #BCBCBC",
"5	c #1B1B1B",
"6	c #101010",
"7	c #CECECE",
"8	c #A6A6A6",
"9	c #D7D7D7",
"0	c #B9B9B9",
"a	c #737373",
"b	c #595959",
"c	c #EDEDED",
"d	c #4F4F4F",
"e	c #747474",
"f	c #4B4B4B",
"g	c #3B3B3B",
"h	c #020202",
"i	c #5A5A5A",
"j	c #474747",
"k	c #373737",
"l	c #B7B7B7",
"m	c #808080",
"n	c #AEAEAE",
"o	c #010101",
"p	c #090909",
"q	c #C6C6C6",
"r	c #F4F4F4",
"s	c #5B5B5B",
"t	c #363636",
"u	c #D8D8D8",
"v	c #030303",
"w	c #A1A1A1",
"x	c #878787",
"y	c #E3E3E3",
"                           ",
"              .            ",
"             +@#           ",
"            $@@@           ",
"           @%& *=-         ",
"          ;@    >@         ",
"          @@    >@         ",
"         ,@@     @         ",
"         @'      )@        ",
"         @'      !@~       ",
"        {@'       @]       ",
"       ^@/         @(      ",
"       ^@/         @@      ",
"       _@:         @@      ",
"      <@[          }|1     ",
"      @2            3@     ",
"     4@5            6@     ",
"    #@@             4@@7   ",
"    8@               9@0   ",
"    @@               9@0   ",
"   a@b               cd@e  ",
"   @f                  gh  ",
"   @i                  jh  ",
"  k@                   j@l ",
" m@n                    @@ ",
" m@o   7pqrsppt      upv@@ ",
" m@@@@@@@@@@@@@@@@@@@@@@@@ ",
"  wx     y               x ",
"                           "};
