/* XPM */
static char * simb21_xpm[] = {
"38 37 88 1",
" 	c #FFFFFF",
".	c #F2F2F2",
"+	c #000000",
"@	c #060606",
"#	c #BCBCBC",
"$	c #030303",
"%	c #969696",
"&	c #808080",
"*	c #D5D5D5",
"=	c #8C8C8C",
"-	c #DFDFDF",
";	c #FBFBFB",
">	c #B7B7B7",
",	c #111111",
"'	c #B1B1B1",
")	c #989898",
"!	c #919191",
"~	c #656565",
"{	c #C4C4C4",
"]	c #AFAFAF",
"^	c #AEAEAE",
"/	c #E3E3E3",
"(	c #DADADA",
"_	c #B8B8B8",
":	c #D9D9D9",
"<	c #202020",
"[	c #525252",
"}	c #727272",
"|	c #212121",
"1	c #999999",
"2	c #272727",
"3	c #EEEEEE",
"4	c #3A3A3A",
"5	c #010101",
"6	c #686868",
"7	c #222222",
"8	c #F4F4F4",
"9	c #DEDEDE",
"0	c #A6A6A6",
"a	c #BEBEBE",
"b	c #1A1A1A",
"c	c #434343",
"d	c #C2C2C2",
"e	c #4D4D4D",
"f	c #D7D7D7",
"g	c #0B0B0B",
"h	c #262626",
"i	c #7C7C7C",
"j	c #606060",
"k	c #BDBDBD",
"l	c #E6E6E6",
"m	c #EAEAEA",
"n	c #4B4B4B",
"o	c #747474",
"p	c #EBEBEB",
"q	c #F6F6F6",
"r	c #F5F5F5",
"s	c #858585",
"t	c #D4D4D4",
"u	c #C0C0C0",
"v	c #DDDDDD",
"w	c #F0F0F0",
"x	c #646464",
"y	c #757575",
"z	c #F3F3F3",
"A	c #1D1D1D",
"B	c #414141",
"C	c #0A0A0A",
"D	c #2A2A2A",
"E	c #CDCDCD",
"F	c #949494",
"G	c #EFEFEF",
"H	c #7F7F7F",
"I	c #313131",
"J	c #707070",
"K	c #171717",
"L	c #242424",
"M	c #6F6F6F",
"N	c #0D0D0D",
"O	c #797979",
"P	c #4E4E4E",
"Q	c #8A8A8A",
"R	c #3D3D3D",
"S	c #1B1B1B",
"T	c #C7C7C7",
"U	c #CACACA",
"V	c #F1F1F1",
"W	c #E1E1E1",
"                                      ",
"                                      ",
"                .+++@                 ",
"                +++++                 ",
"              #+$%%%&+*               ",
"              =+-   ;+>               ",
"             ++       ++              ",
"            ,+'       ) !             ",
"           ~+{          +]            ",
"          ^+/  +    (+> _+:           ",
"         >++  =+    (+>  <+           ",
"         +[   =+}   (+>    |          ",
"       12:    3456  7+8    90a        ",
"      9+b       +c 7+       %+        ",
"      ++        ++ 7+       d|+       ",
"     e+f        ]+egh         +i      ",
"    j+;          ;+:          ;+$     ",
"   kl     mn++o  p+9qkkkkkr    csk    ",
"   +t     ++i=uo v=w(+x===3     y+    ",
"  z+      ++  =+    (+>         y+    ",
"  +       ++  =+    (++++         +3  ",
"  +       ++  =+    (+++A         +x  ",
"  +       ++  =+    (++           +x  ",
" B+       ++CC++    (+++CC(       +x  ",
"  +       D+++o     (+++++:       +x  ",
"   +E                           y+F   ",
"   GHIIIIIIIIIIIIIIIIIIIIIIIIJIIKL    ",
"    M+++++++++++++++++++++++++++N     ",
"      +O              jj     P+Q      ",
"      +O                     P+       ",
"      +R                     S+       ",
"      ++ITTTTTTTTTTTTTTTTTTTT++       ",
"      +++++++++++++++++++++++++       ",
"      rUU      VUUUUUUUU WUUUU+       ",
"                                      ",
"                                      ",
"                                      "};
