/* XPM */
static char * simb7_xpm[] = {
"33 33 73 1",
" 	c #FFFFFF",
".	c #D1D1D1",
"+	c #747474",
"@	c #858585",
"#	c #ABABAB",
"$	c #000000",
"%	c #E9E9E9",
"&	c #202020",
"*	c #292929",
"=	c #FCFCFC",
"-	c #9B9B9B",
";	c #E5E5E5",
">	c #D5D5D5",
",	c #FEFEFE",
"'	c #A2A2A2",
")	c #3F3F3F",
"!	c #070707",
"~	c #0A0A0A",
"{	c #979797",
"]	c #090909",
"^	c #C1C1C1",
"/	c #151515",
"(	c #1F1F1F",
"_	c #020202",
":	c #1C1C1C",
"<	c #878787",
"[	c #555555",
"}	c #969696",
"|	c #626262",
"1	c #757575",
"2	c #D9D9D9",
"3	c #A6A6A6",
"4	c #D7D7D7",
"5	c #242424",
"6	c #DBDBDB",
"7	c #373737",
"8	c #101010",
"9	c #B4B4B4",
"0	c #B9B9B9",
"a	c #393939",
"b	c #262626",
"c	c #FAFAFA",
"d	c #7E7E7E",
"e	c #111111",
"f	c #7D7D7D",
"g	c #D2D2D2",
"h	c #353535",
"i	c #4F4F4F",
"j	c #131313",
"k	c #F9F9F9",
"l	c #808080",
"m	c #1B1B1B",
"n	c #A3A3A3",
"o	c #BEBEBE",
"p	c #5E5E5E",
"q	c #F0F0F0",
"r	c #A7A7A7",
"s	c #E1E1E1",
"t	c #D4D4D4",
"u	c #929292",
"v	c #4C4C4C",
"w	c #F8F8F8",
"x	c #141414",
"y	c #F4F4F4",
"z	c #AAAAAA",
"A	c #818181",
"B	c #191919",
"C	c #777777",
"D	c #EFEFEF",
"E	c #0B0B0B",
"F	c #121212",
"G	c #9A9A9A",
"H	c #A4A4A4",
"                                 ",
"                                 ",
"           .+       @            ",
"           #$%      &*           ",
"           #$=      &*           ",
"    -      #$;      &*       >-, ",
"   $$'     #$;      &*       $$$ ",
"  )$$!~   ~${,      &* ~    ]$$$ ",
"   $$$$^^^$/        &(^$_^^:$$$$ ",
"   $$$<$$$$[        }$$|$$$$1$$$ ",
"  2$$' 3$$$[         4$5$$$6 $$$ ",
"  78$'    $[           !_    $$$ ",
"  9$$'    $[            $$   $$$ ",
"  7$$'    $[            $$   $$$ ",
"  7$$'    $$         4$0,$   $$$ ",
"   $$'    ab$c      &$$0,$   $$$ ",
"  7$$'     #$; d    e$$0f$   $$$ ",
"   $$'     #$;g$ hi &$$0$$   $$$ ",
"   $$'     #$,g$ ji &$$$$$   $$$ ",
"   $$'     #$;g$ ki &$ $$$   $$$ ",
"  l$$'     #$;g$ ki &m  no   p$$ ",
"  q$$'     #$;g$ ki &b       $$$ ",
"   $$'     #$;r$ k)s$*       $$$ ",
"   $$'     t$$$$ k$$$u       v$$ ",
"   $$b       /$$ $$$w       ;$$$ ",
"   $$$$         $x         y$$$$ ",
"   $$$$z        A         zB$$$$ ",
"   $$$$$C                 $$$$$$ ",
"   D$$$$$$$$8B$$$$$$$$E!$$$$$$$  ",
"     F$$$$$$$$$$$$$$$$$$$$$$$<   ",
"      C$$$$$$$$$$$$$$$$$$$$$C    ",
"       G$$$$$$$$$$$$$$$$$$$H     ",
"                                 "};
