/* XPM */
static char * simb26_xpm[] = {
"29 32 55 1",
" 	c #FFFFFF",
".	c #757575",
"+	c #484848",
"@	c #9B9B9B",
"#	c #FCFCFC",
"$	c #878787",
"%	c #000000",
"&	c #959595",
"*	c #505050",
"=	c #C5C5C5",
"-	c #B8B8B8",
";	c #CECECE",
">	c #6F6F6F",
",	c #454545",
"'	c #919191",
")	c #303030",
"!	c #D6D6D6",
"~	c #A9A9A9",
"{	c #E8E8E8",
"]	c #DADADA",
"^	c #B7B7B7",
"/	c #F1F1F1",
"(	c #575757",
"_	c #C0C0C0",
":	c #DEDEDE",
"<	c #B3B3B3",
"[	c #0F0F0F",
"}	c #6A6A6A",
"|	c #D7D7D7",
"1	c #2B2B2B",
"2	c #151515",
"3	c #A1A1A1",
"4	c #828282",
"5	c #8E8E8E",
"6	c #4C4C4C",
"7	c #070707",
"8	c #9A9A9A",
"9	c #444444",
"0	c #383838",
"a	c #A5A5A5",
"b	c #979797",
"c	c #FAFAFA",
"d	c #F7F7F7",
"e	c #2A2A2A",
"f	c #363636",
"g	c #4D4D4D",
"h	c #DDDDDD",
"i	c #6C6C6C",
"j	c #3A3A3A",
"k	c #C3C3C3",
"l	c #909090",
"m	c #969696",
"n	c #848484",
"o	c #5B5B5B",
"p	c #8D8D8D",
"                             ",
"                             ",
"         .+++++@ #+          ",
"        $%%%%%%%%%%&         ",
"      %%%%*=-      %%%       ",
"    ;>%%,          '%%)!     ",
"    ~%{              ]%^     ",
"   /(                  _:    ",
"   %(                   %<   ",
"   %(                   %+   ",
"   %(                   %+   ",
"  %[                     %}  ",
"  %[                     %%  ",
"  %|                     %%  ",
"  %1                     2%  ",
"  %[                     >%  ",
"  %<                     %%  ",
"  %                      %%  ",
" 3%[                     %%  ",
" 4%5                     %%  ",
" 4%[                     %%  ",
"  6%(                   %78  ",
"   %(                   %    ",
"   %9                  0%    ",
"   /%a                b%%    ",
"    ~%c              d%e     ",
"      %%%          %%%-      ",
"      %%%ffffghfijk%%%       ",
"        l%%%%%%%%%%m         ",
"         noooooooop          ",
"                             ",
"                             "};
