/* XPM */
static char * simb32_xpm[] = {
"36 31 65 1",
" 	c #FFFFFF",
".	c #2B2B2B",
"+	c #000000",
"@	c #323232",
"#	c #F6F6F6",
"$	c #D6D6D6",
"%	c #151515",
"&	c #020202",
"*	c #030303",
"=	c #717171",
"-	c #5D5D5D",
";	c #A5A5A5",
">	c #A3A3A3",
",	c #141414",
"'	c #0C0C0C",
")	c #989898",
"!	c #010101",
"~	c #D9D9D9",
"{	c #4F4F4F",
"]	c #F2F2F2",
"^	c #818181",
"/	c #EAEAEA",
"(	c #9C9C9C",
"_	c #C7C7C7",
":	c #E4E4E4",
"<	c #E5E5E5",
"[	c #7C7C7C",
"}	c #505050",
"|	c #949494",
"1	c #FBFBFB",
"2	c #808080",
"3	c #5A5A5A",
"4	c #F4F4F4",
"5	c #171717",
"6	c #CDCDCD",
"7	c #D0D0D0",
"8	c #2F2F2F",
"9	c #A0A0A0",
"0	c #292929",
"a	c #E9E9E9",
"b	c #CFCFCF",
"c	c #8F8F8F",
"d	c #3A3A3A",
"e	c #3B3B3B",
"f	c #0A0A0A",
"g	c #515151",
"h	c #656565",
"i	c #D7D7D7",
"j	c #747474",
"k	c #A9A9A9",
"l	c #3F3F3F",
"m	c #CECECE",
"n	c #A4A4A4",
"o	c #050505",
"p	c #111111",
"q	c #535353",
"r	c #272727",
"s	c #B8B8B8",
"t	c #B2B2B2",
"u	c #C6C6C6",
"v	c #F3F3F3",
"w	c #DEDEDE",
"x	c #C9C9C9",
"y	c #B5B5B5",
"z	c #939393",
"                                    ",
"                                    ",
"  .+++++++++++++@+++++++++++++++++# ",
"  ++++++++++++++++++++++++++++++++$ ",
"  ++++++++++++++++++++++++++++++++$ ",
"  %%%%&+%%%%%%%%%++%*++%%%%%++++%%  ",
"                    =-;         >   ",
"  ,+++++++'      ++)  ++!      *++  ",
"  ++++++++'      ++)  +++      !++  ",
"  ++++++++++     ++)  +++~     !++  ",
"  ++++++++++{]   ++)  ++++^    &++/ ",
" (+++_  :++++<   ++)  +++++    *++  ",
" [++}     +++:   ++|  ++++++   +++1 ",
" 2++3     4++<   ++)  ++++++56 +++: ",
" 7++3     4++<   ++)  +++89++0 +++  ",
" 2++3     4++%   ++)  +++  a++++a+  ",
" 2++3     4++<   ++)  +++   .+++b+  ",
" 2+=3     4++<   ++)  c++    |++++  ",
" 2+d3     e++<   ++)  +++    <d+++  ",
" 2++3     f++<   ++)  +++g     +++  ",
" 2++3     +++<   ++)  +++      +++  ",
" 2++3    h+++<   ++i  +++      +++  ",
" 2++f    ++++<   ++   +++      +++  ",
" 2+++++++++++a   ++   +++      +++  ",
" 2++++++++++j   k++   +++      +++  ",
" 2+++++++++l    m++   ++&      +++  ",
"  &++n mo+p      +q    +&       ++  ",
"  r++ stt+tt t  u+tttvt+&tw   xt++  ",
" y++++++++++++++++++++++++++++++++  ",
" 2++++++++++++++++++++++++++++++++  ",
" z++++++++++++++++++++++++++++++++  "};
