/* XPM */
static char * simb4_xpm[] = {
"32 30 87 1",
" 	c #FFFFFF",
".	c #484848",
"+	c #4D4D4D",
"@	c #BEBEBE",
"#	c #B4B4B4",
"$	c #000000",
"%	c #040404",
"&	c #EBEBEB",
"*	c #030303",
"=	c #FCFCFC",
"-	c #BFBFBF",
";	c #A5A5A5",
">	c #353535",
",	c #020202",
"'	c #CFCFCF",
")	c #8C8C8C",
"!	c #747474",
"~	c #070707",
"{	c #5E5E5E",
"]	c #2E2E2E",
"^	c #CACACA",
"/	c #242424",
"(	c #121212",
"_	c #131313",
":	c #414141",
"<	c #656565",
"[	c #8B8B8B",
"}	c #111111",
"|	c #515151",
"1	c #454545",
"2	c #898989",
"3	c #CDCDCD",
"4	c #F1F1F1",
"5	c #525252",
"6	c #DFDFDF",
"7	c #424242",
"8	c #202020",
"9	c #F3F3F3",
"0	c #B5B5B5",
"a	c #949494",
"b	c #E3E3E3",
"c	c #0B0B0B",
"d	c #A6A6A6",
"e	c #E5E5E5",
"f	c #FDFDFD",
"g	c #858585",
"h	c #DDDDDD",
"i	c #535353",
"j	c #4A4A4A",
"k	c #727272",
"l	c #FEFEFE",
"m	c #BCBCBC",
"n	c #F6F6F6",
"o	c #CECECE",
"p	c #B9B9B9",
"q	c #1B1B1B",
"r	c #D7D7D7",
"s	c #C4C4C4",
"t	c #1F1F1F",
"u	c #1D1D1D",
"v	c #181818",
"w	c #0A0A0A",
"x	c #C8C8C8",
"y	c #B8B8B8",
"z	c #333333",
"A	c #646464",
"B	c #767676",
"C	c #B7B7B7",
"D	c #595959",
"E	c #161616",
"F	c #393939",
"G	c #383838",
"H	c #C9C9C9",
"I	c #2B2B2B",
"J	c #151515",
"K	c #F2F2F2",
"L	c #212121",
"M	c #878787",
"N	c #ABABAB",
"O	c #A2A2A2",
"P	c #EFEFEF",
"Q	c #E9E9E9",
"R	c #222222",
"S	c #ACACAC",
"T	c #D8D8D8",
"U	c #BABABA",
"V	c #0D0D0D",
"                                ",
"                                ",
" .+@                       #+$  ",
" $$%&                      *$$= ",
" $$$$   $$   $-  $;  >,   $$$$' ",
" $$$)$!!~{$$]^/!$)(_:<[$!})|$$1 ",
" $2$ 3$$ 45$] 6$7 8$$9 $$0 a$$1 ",
" $b$                       a$$1 ",
" cd$   $$$$e   f$$$$   $$g a$$1 ",
" $$$ hi$$$$jk  |$$$$i l$$$ a$$1 ",
" $$$ 3$mnnn$] :$nnno$pl$$$ a$$1 ",
" $$$ 3$    q] :$   r$p $$> a$$1 ",
" $$$ 3$s   $] t$   r$p     a$$1 ",
" $$$ n'$$$$$] >~   r$p     u$$1 ",
" $$$   vvvw$] :~   r$p     a$$1 ",
" $$$       $] :~   r$p     a$$1 ",
" $$$     x$$y :*   r$p     z$$1 ",
" $$A     B$'  _$   C$2     D$$E ",
" $$$ 3$$$$F    G$$$$FH     a$$1 ",
" $$$ 3$$$I     =$$$J       a$$1 ",
" $$$                       8$$  ",
" $$$$                     $$$$K ",
" $$$$L                   ;$$$$M ",
" $$$$$N                 O$$$$$  ",
" P$$$$$x               m$$$$$Q  ",
"  R$$$$$$$$$$$$$$$$$$$$$$$$$$f  ",
"   S$$$$$$$$$$$$$$$$$$$$$$$>T   ",
"     $$$$$$$$$$$$$$$$$$$$$3     ",
"                       UV       ",
"                                "};
