/* XPM */
static char * simb30_xpm[] = {
"35 46 104 2",
"  	c #FFFFFF",
". 	c #E9E9E9",
"+ 	c #DBDBDB",
"@ 	c #656565",
"# 	c #000000",
"$ 	c #404040",
"% 	c #474747",
"& 	c #353535",
"* 	c #020202",
"= 	c #F2F2F2",
"- 	c #828282",
"; 	c #909090",
"> 	c #4B4B4B",
", 	c #979797",
"' 	c #F5F5F5",
") 	c #0A0A0A",
"! 	c #D9D9D9",
"~ 	c #181818",
"{ 	c #9B9B9B",
"] 	c #212121",
"^ 	c #101010",
"/ 	c #5D5D5D",
"( 	c #A9A9A9",
"_ 	c #141414",
": 	c #E0E0E0",
"< 	c #BDBDBD",
"[ 	c #FBFBFB",
"} 	c #F1F1F1",
"| 	c #E8E8E8",
"1 	c #FAFAFA",
"2 	c #ABABAB",
"3 	c #1F1F1F",
"4 	c #252525",
"5 	c #CACACA",
"6 	c #393939",
"7 	c #8A8A8A",
"8 	c #F4F4F4",
"9 	c #262626",
"0 	c #C9C9C9",
"a 	c #444444",
"b 	c #4D4D4D",
"c 	c #767676",
"d 	c #F0F0F0",
"e 	c #515151",
"f 	c #9A9A9A",
"g 	c #1C1C1C",
"h 	c #1A1A1A",
"i 	c #3F3F3F",
"j 	c #484848",
"k 	c #575757",
"l 	c #202020",
"m 	c #B7B7B7",
"n 	c #545454",
"o 	c #AFAFAF",
"p 	c #151515",
"q 	c #171717",
"r 	c #060606",
"s 	c #B1B1B1",
"t 	c #F8F8F8",
"u 	c #D6D6D6",
"v 	c #CFCFCF",
"w 	c #343434",
"x 	c #080808",
"y 	c #4E4E4E",
"z 	c #0F0F0F",
"A 	c #373737",
"B 	c #3E3E3E",
"C 	c #EAEAEA",
"D 	c #D4D4D4",
"E 	c #0C0C0C",
"F 	c #E1E1E1",
"G 	c #E7E7E7",
"H 	c #292929",
"I 	c #A7A7A7",
"J 	c #878787",
"K 	c #919191",
"L 	c #F7F7F7",
"M 	c #525252",
"N 	c #595959",
"O 	c #888888",
"P 	c #434343",
"Q 	c #A1A1A1",
"R 	c #DFDFDF",
"S 	c #E4E4E4",
"T 	c #F3F3F3",
"U 	c #D7D7D7",
"V 	c #323232",
"W 	c #2C2C2C",
"X 	c #7B7B7B",
"Y 	c #FCFCFC",
"Z 	c #C3C3C3",
"` 	c #222222",
" .	c #B0B0B0",
"..	c #2B2B2B",
"+.	c #ECECEC",
"@.	c #646464",
"#.	c #D3D3D3",
"$.	c #ACACAC",
"%.	c #0E0E0E",
"&.	c #757575",
"*.	c #8B8B8B",
"=.	c #FEFEFE",
"-.	c #969696",
";.	c #B6B6B6",
"                        . + + + + + + + + +                           ",
"                        @ # # # # # # # # # $                         ",
"                    % # # # # # # # # # # # # &                       ",
"                  * # # # # # # # # # # # # # # # #                   ",
"              = # # # - ; % % % % >     % % , % # # # '               ",
"              # # # )                           # # # !               ",
"            ~ # # #                               { # # ]             ",
"        ' # # # ^           # # # # # # #           - # # /           ",
"        ( # # _             # # # # # # #             ^ # # :         ",
"      ' # # #               # # # # # # #             < # # # [       ",
"      } # # |               # # # # # # #               # # # 1       ",
"      2 # # !                   3 # 4                   5 # # #       ",
"    6 # # 7 8       1 9 0       a # b         c         d e # # f     ",
"    6 # #           # # g       a #         h # #           # # #     ",
"    6 # #         i # # # #     a #       # # # # j         # # #     ",
"    6 # k         i # l # # # 5 m #     # # # % # j           # #     ",
"  n # #         o p #   a # # 9 q # h n # # >   # ~           r # s   ",
"  # # #         # # #   t g # # # # # # # 4     # # #         r # # u ",
"  # # #       v # # #       # # # # # # w       # # # !         # # # ",
"  # # x       v # # #         # # # # y         # # # !         # # # ",
"5 # # z       v # # x         | A # B C         # # # !         # # # ",
"5 # # #       v # # )           a #             # # # !         # # # ",
"5 # # #       v # # )           a #             # # # !         # # # ",
"5 # # #       v # # )           a #             # # # !         # # 7 ",
"5 # # z       v # # )           a #             # # # !         # # D ",
"  g # E       v # # x           a #             # # # F       r # A   ",
"    # # 2     G # # # H         a #           4 # # #       I # #     ",
"    6 # #       J # # # s       a #         K # # #         # # #     ",
"    6 # #         # # # {       a # 8       K # # #         # # #     ",
"      n # # L     i # M     # # # # # # #     N # O     8 # # # P     ",
"      } # # |       Q       # # # # # # #               R # # #       ",
"      } # # |               # # # # # # #               # # # S       ",
"      T ] # # U             V # # # # V W               # # # 1       ",
"        ( # # h                                       # # # X Y       ",
"          Z # # #                                 0 # # h Z           ",
"            ` # # #                             '  .# ) ..            ",
"              # # # )                           # # # !               ",
"              +.# # # # @.@.@.@.# # # # # # # # # # D                 ",
"                  # # # # # # # # # # # # # # # # #                   ",
"                        # # # # # # # # # # # x # # # # #.#.          ",
"                        $.%.# # # # # # # # s   &.# # # # # *.*.      ",
"                                  =.                  # # # # # P     ",
"                                                          -.# # #     ",
"                                                          ;.~ # p     ",
"                                                                P     ",
"                                                                      "};
