/* XPM */
static char * simb29_xpm[] = {
"33 36 77 1",
" 	c #FFFFFF",
".	c #000000",
"+	c #E8E8E8",
"@	c #5C5C5C",
"#	c #C9C9C9",
"$	c #262626",
"%	c #191919",
"&	c #575757",
"*	c #FDFDFD",
"=	c #0F0F0F",
"-	c #4D4D4D",
";	c #F1F1F1",
">	c #A7A7A7",
",	c #DBDBDB",
"'	c #3A3A3A",
")	c #E2E2E2",
"!	c #212121",
"~	c #D3D3D3",
"{	c #828282",
"]	c #C7C7C7",
"^	c #232323",
"/	c #D5D5D5",
"(	c #E1E1E1",
"_	c #4F4F4F",
":	c #FAFAFA",
"<	c #535353",
"[	c #161616",
"}	c #424242",
"|	c #F7F7F7",
"1	c #E6E6E6",
"2	c #494949",
"3	c #F8F8F8",
"4	c #B3B3B3",
"5	c #F4F4F4",
"6	c #393939",
"7	c #8D8D8D",
"8	c #272727",
"9	c #B2B2B2",
"0	c #909090",
"a	c #9C9C9C",
"b	c #1C1C1C",
"c	c #B4B4B4",
"d	c #4A4A4A",
"e	c #111111",
"f	c #8E8E8E",
"g	c #656565",
"h	c #040404",
"i	c #0A0A0A",
"j	c #D1D1D1",
"k	c #747474",
"l	c #CECECE",
"m	c #282828",
"n	c #EEEEEE",
"o	c #A5A5A5",
"p	c #101010",
"q	c #949494",
"r	c #B5B5B5",
"s	c #1A1A1A",
"t	c #515151",
"u	c #E9E9E9",
"v	c #0B0B0B",
"w	c #999999",
"x	c #B8B8B8",
"y	c #A9A9A9",
"z	c #DADADA",
"A	c #D9D9D9",
"B	c #858585",
"C	c #787878",
"D	c #020202",
"E	c #EFEFEF",
"F	c #ABABAB",
"G	c #4C4C4C",
"H	c #F6F6F6",
"I	c #676767",
"J	c #D7D7D7",
"K	c #DDDDDD",
"L	c #323232",
"                                 ",
"                                 ",
"                             ... ",
"           +@..+++++#       .... ",
"           ..........$     %.... ",
"        ................& $....* ",
"       =...-;;;;;;;;;....=...;>  ",
"     ,....'          )......!    ",
"    ~...{             ].....     ",
"    ^../             (......_    ",
"    ...              .......!    ",
"   :..<             [....}..[    ",
"   &..|            @.....1...@   ",
"  2..3            4.....  5...   ",
"  6..            .....7    8..9  ",
"  6..           ^....0     8..9  ",
"  6..          >.....      8..9  ",
"  6..         .....a       8..9  ",
"  b..        c....d        e..f  ",
"  6..       g....h         8.69  ",
"  6..      %i....          8..9  ",
"  6..     j....[           8..9  ",
"  6..     .....k           8..9  ",
"  l..mn op....            q...9  ",
"   ;...|.....             ....r  ",
"   ;.......st            u..vw   ",
"   :.......              x..!    ",
"    y.....              ....!    ",
"    .......          z.....A     ",
"   B.......7777777777C....       ",
"  6.......................       ",
" .....+ ..............D.         ",
" .....E FGH..........I           ",
" ...qJ     qqqqqqqqqq            ",
" KLK                             ",
"            u,,,,,,,,,           "};
