/* XPM */
static char * simb23_xpm[] = {
"32 31 73 1",
" 	c #FFFFFF",
".	c #D5D5D5",
"+	c #C9C9C9",
"@	c #393939",
"#	c #000000",
"$	c #171717",
"%	c #C7C7C7",
"&	c #E2E2E2",
"*	c #4F4F4F",
"=	c #323232",
"-	c #F0F0F0",
";	c #404040",
">	c #D9D9D9",
",	c #5F5F5F",
"'	c #D2D2D2",
")	c #E5E5E5",
"!	c #A1A1A1",
"~	c #F1F1F1",
"{	c #212121",
"]	c #6A6A6A",
"^	c #CBCBCB",
"/	c #EEEEEE",
"(	c #DFDFDF",
"_	c #818181",
":	c #FAFAFA",
"<	c #F7F7F7",
"[	c #8C8C8C",
"}	c #747474",
"|	c #444444",
"1	c #969696",
"2	c #B9B9B9",
"3	c #ADADAD",
"4	c #E6E6E6",
"5	c #737373",
"6	c #1D1D1D",
"7	c #B2B2B2",
"8	c #9C9C9C",
"9	c #C6C6C6",
"0	c #222222",
"a	c #FBFBFB",
"b	c #A9A9A9",
"c	c #B6B6B6",
"d	c #525252",
"e	c #757575",
"f	c #434343",
"g	c #EBEBEB",
"h	c #BDBDBD",
"i	c #313131",
"j	c #FCFCFC",
"k	c #F9F9F9",
"l	c #838383",
"m	c #7C7C7C",
"n	c #666666",
"o	c #8A8A8A",
"p	c #C1C1C1",
"q	c #E3E3E3",
"r	c #272727",
"s	c #0C0C0C",
"t	c #646464",
"u	c #909090",
"v	c #7E7E7E",
"w	c #EAEAEA",
"x	c #E8E8E8",
"y	c #1C1C1C",
"z	c #A6A6A6",
"A	c #C5C5C5",
"B	c #3F3F3F",
"C	c #C8C8C8",
"D	c #181818",
"E	c #919191",
"F	c #121212",
"G	c #262626",
"H	c #F5F5F5",
"  .+++++++++++++++++++++        ",
"  @#####################        ",
"  $#%%#%&%%%%%#####*%%%%#=      ",
"  @#                    ##-     ",
"  @#                     ;#>    ",
"  @#               ,,, ' )!~    ",
"  @#              ######   #{   ",
"  @#             #######    ##  ",
"  @#             #######    ]#  ",
"  @#             ####^)/    (#  ",
"  @#    _######:<###        (#  ",
"  @#   [#######}|###12 3    ##4 ",
"  @#  5########} ########6  ##7 ",
"  @#  #########- #########8 9#7 ",
"  @# ####0       a#########>(#7 ",
"  @#b###c         d##eee###>(#. ",
"  @#b###   ffff   gh<   ###>(#  ",
"  @#b##i   ####}   j:   ###>(#7 ",
"  @#b##0  k#####l m########>(#7 ",
"  @#b###   n##### ######### (#( ",
"  @#b###o    &### ########  (#  ",
"  @#  ###p    ###  _q(rs#t  (#7 ",
"  u#u v###uuuu###           (#7 ",
"   ~#  ##########           (#w ",
"    b#x #########           (#  ",
"     yzA B#####{            (#C ",
"      D#  EEEE#}            (#  ",
"       #FGGGGG#F9GGz (GG    ##  ",
"       .######################H ",
"         ]]]] ]]]]]]]] ]]]]]]]  ",
"                                "};
