/* XPM */
static char * simb5_xpm[] = {
"35 29 81 1",
" 	c #FFFFFF",
".	c #000000",
"+	c #C8C8C8",
"@	c #BFBFBF",
"#	c #676767",
"$	c #A2A2A2",
"%	c #DFDFDF",
"&	c #474747",
"*	c #AFAFAF",
"=	c #B1B1B1",
"-	c #E0E0E0",
";	c #020202",
">	c #373737",
",	c #080808",
"'	c #727272",
")	c #696969",
"!	c #8E8E8E",
"~	c #060606",
"{	c #4C4C4C",
"]	c #626262",
"^	c #7C7C7C",
"/	c #535353",
"(	c #151515",
"_	c #111111",
":	c #ABABAB",
"<	c #2E2E2E",
"[	c #303030",
"}	c #3A3A3A",
"|	c #181818",
"1	c #ECECEC",
"2	c #B8B8B8",
"3	c #9F9F9F",
"4	c #A0A0A0",
"5	c #FDFDFD",
"6	c #A6A6A6",
"7	c #757575",
"8	c #B5B5B5",
"9	c #F5F5F5",
"0	c #858585",
"a	c #E5E5E5",
"b	c #1C1C1C",
"c	c #6B6B6B",
"d	c #DBDBDB",
"e	c #121212",
"f	c #6F6F6F",
"g	c #B0B0B0",
"h	c #050505",
"i	c #C0C0C0",
"j	c #070707",
"k	c #6D6D6D",
"l	c #EAEAEA",
"m	c #4B4B4B",
"n	c #030303",
"o	c #848484",
"p	c #292929",
"q	c #464646",
"r	c #C2C2C2",
"s	c #1B1B1B",
"t	c #2C2C2C",
"u	c #D7D7D7",
"v	c #DEDEDE",
"w	c #C4C4C4",
"x	c #B4B4B4",
"y	c #ACACAC",
"z	c #1F1F1F",
"A	c #E8E8E8",
"B	c #E1E1E1",
"C	c #868686",
"D	c #0E0E0E",
"E	c #232323",
"F	c #EBEBEB",
"G	c #D9D9D9",
"H	c #BDBDBD",
"I	c #7B7B7B",
"J	c #EFEFEF",
"K	c #636363",
"L	c #252525",
"M	c #D1D1D1",
"N	c #CACACA",
"O	c #0C0C0C",
"P	c #F3F3F3",
"                                   ",
"    ..+                       @##  ",
"    ..$                       ...  ",
"   %....   .&  *.  =.-  .;   ....  ",
"   >,'.)!!!~{!!.'!!]'^!!/;!!(....  ",
"   >_ . ... :..< [.} |..12..34...  ",
"   5 64                       ...  ",
"   >_7$   8888    888888  889 ...  ",
"   >..$  0....a  b...... c..d ...  ",
"   e..f g.....h  ....... ...i ...  ",
"   >..$ ..    .< .j      ...d ...  ",
"   >..$ ..    .< .j       kkl ...  ",
"   >..$ ..mmmm.< .nmmm        ...  ",
"   >..$  o.....< .....p       ...  ",
"   >..$   q rs.< 7qqqq..      ...  ",
"   >..$      t.<      u.      ...  ",
"   >..$     :.iv      u.w     ...  ",
"   >..$ x.y..zA  B..C..D      ...  ",
"   >..$ ....E    ....._      F...  ",
"   >..$  Ggx      gg%gH      A...  ",
"   >..hj                     j.n.  ",
"   >....                    +....  ",
"    .....                  =.....  ",
"    .....I                 ......  ",
"    J...........................   ",
"     KL.......................KM   ",
"      N:.....................:     ",
"        r..OPPP.............d      ",
"                                   "};
