/* XPM */
static char * simb17_xpm[] = {
"27 29 94 2",
"  	c #FFFFFF",
". 	c #606060",
"+ 	c #393939",
"@ 	c #080808",
"# 	c #000000",
"$ 	c #5C5C5C",
"% 	c #090909",
"& 	c #666666",
"* 	c #F7F7F7",
"= 	c #FEFEFE",
"- 	c #FAFAFA",
"; 	c #262626",
"> 	c #020202",
", 	c #C3C3C3",
"' 	c #9B9B9B",
") 	c #454545",
"! 	c #9A9A9A",
"~ 	c #1A1A1A",
"{ 	c #D7D7D7",
"] 	c #F0F0F0",
"^ 	c #C6C6C6",
"/ 	c #909090",
"( 	c #797979",
"_ 	c #3F3F3F",
": 	c #2B2B2B",
"< 	c #D9D9D9",
"[ 	c #969696",
"} 	c #8D8D8D",
"| 	c #D2D2D2",
"1 	c #EEEEEE",
"2 	c #505050",
"3 	c #DBDBDB",
"4 	c #F6F6F6",
"5 	c #BBBBBB",
"6 	c #ECECEC",
"7 	c #FBFBFB",
"8 	c #181818",
"9 	c #353535",
"0 	c #AFAFAF",
"a 	c #222222",
"b 	c #010101",
"c 	c #717171",
"d 	c #727272",
"e 	c #F9F9F9",
"f 	c #656565",
"g 	c #686868",
"h 	c #282828",
"i 	c #1D1D1D",
"j 	c #747474",
"k 	c #B3B3B3",
"l 	c #818181",
"m 	c #A5A5A5",
"n 	c #0E0E0E",
"o 	c #DDDDDD",
"p 	c #898989",
"q 	c #232323",
"r 	c #191919",
"s 	c #525252",
"t 	c #9D9D9D",
"u 	c #4D4D4D",
"v 	c #CECECE",
"w 	c #848484",
"x 	c #292929",
"y 	c #171717",
"z 	c #272727",
"A 	c #DEDEDE",
"B 	c #B9B9B9",
"C 	c #C8C8C8",
"D 	c #1E1E1E",
"E 	c #A0A0A0",
"F 	c #2C2C2C",
"G 	c #515151",
"H 	c #BFBFBF",
"I 	c #E0E0E0",
"J 	c #868686",
"K 	c #1C1C1C",
"L 	c #B1B1B1",
"M 	c #919191",
"N 	c #141414",
"O 	c #333333",
"P 	c #202020",
"Q 	c #111111",
"R 	c #A2A2A2",
"S 	c #303030",
"T 	c #A1A1A1",
"U 	c #767676",
"V 	c #C2C2C2",
"W 	c #A7A7A7",
"X 	c #484848",
"Y 	c #8A8A8A",
"Z 	c #E4E4E4",
"` 	c #DADADA",
" .	c #1B1B1B",
"..	c #E1E1E1",
"                                                      ",
"                                                      ",
"  . +             @ # # # # # # # $             %     ",
"  &   *     * * # % # % % # # # # = * *     - ; >     ",
"      #   , # # '                 # # # #   # )       ",
"      ! & ~ ! ! {                 ] ! ! # & ^         ",
"        # #                             # # /         ",
"      # ( _ #                         # # : # <       ",
"      # ( [ # } |                 1 2 #     # <       ",
"      # 3   4 # '                 # # 5   6 # #       ",
"  7 8 9       0 # #             a b c       d b e     ",
"  . #           f #             # ;           g #     ",
"  h #             i # j     k # l             m #     ",
"  n #               o p q q r o 7               #     ",
"  s #                 t # # u                   #     ",
"  # #                 v # # u                 w #     ",
"  # #                 x # # y                 z #     ",
"  . #               b # 5   # b A             z #     ",
"  # #             B # '     C D E             z #     ",
"  # #           f # F           # ;           z #     ",
"  G # h       h # H             o I h       J # K     ",
"      #     { # '                 K # I     # K       ",
"      #   L #                       M #     # #       ",
"      # ; N L                         O # + # <       ",
"        # #                             # # /         ",
"      # P Q # # '                 R # # # S # T       ",
"    U # V W # # X ]       U U   U # # # Y   # #       ",
"  . #           Z # # # # # # # # ;           ` #     ",
"                            5  ...                    "};
