/* XPM */
static char * simb10_xpm[] = {
"33 29 65 1",
" 	c #FFFFFF",
".	c #000000",
"+	c #C8C8C8",
"@	c #1B1B1B",
"#	c #575757",
"$	c #F1F1F1",
"%	c #FBFBFB",
"&	c #F7F7F7",
"*	c #232323",
"=	c #D6D6D6",
"-	c #252525",
";	c #D9D9D9",
">	c #CACACA",
",	c #1A1A1A",
"'	c #1F1F1F",
")	c #757575",
"!	c #FDFDFD",
"~	c #B6B6B6",
"{	c #DBDBDB",
"]	c #919191",
"^	c #838383",
"/	c #828282",
"(	c #EDEDED",
"_	c #949494",
":	c #3C3C3C",
"<	c #CDCDCD",
"[	c #0B0B0B",
"}	c #0E0E0E",
"|	c #7E7E7E",
"1	c #F9F9F9",
"2	c #797979",
"3	c #101010",
"4	c #B1B1B1",
"5	c #888888",
"6	c #C4C4C4",
"7	c #151515",
"8	c #9E9E9E",
"9	c #6E6E6E",
"0	c #030303",
"a	c #2E2E2E",
"b	c #B3B3B3",
"c	c #191919",
"d	c #A2A2A2",
"e	c #F6F6F6",
"f	c #989898",
"g	c #8F8F8F",
"h	c #4A4A4A",
"i	c #ABABAB",
"j	c #F3F3F3",
"k	c #2A2A2A",
"l	c #7A7A7A",
"m	c #FAFAFA",
"n	c #F4F4F4",
"o	c #787878",
"p	c #EFEFEF",
"q	c #080808",
"r	c #929292",
"s	c #505050",
"t	c #959595",
"u	c #515151",
"v	c #BDBDBD",
"w	c #373737",
"x	c #111111",
"y	c #737373",
"z	c #4D4D4D",
"                                 ",
"              ..............     ",
"            +@..............#    ",
"            ..$    $$$$$%$$&.*   ",
"            ..............= #..  ",
"            ..............-  ..; ",
"            >>>>>>>>>,>>>>.' >).!",
"                          ~.!  .!",
"                          ~.   .!",
"                          ~.{  .!",
"                          ~.!  .!",
"                          ].   .!",
"           ^^^^^^^^^^^^^^/..( _.!",
"          :.................{  .!",
"        <.[}}  }| 1}  ;2 3}}  _.!",
"       45.6                   _.!",
"       7.8                    _.!",
"      90a   bcc   ccd   c@    _.!",
"      ..   e...   ..f  g..h    .!",
"      .9    ...   ..f  g..i   _.!",
"    jklm   n...   ..f  g..o   _.!",
"    p.      ..q   ..f  r..s   _.!",
"    ..       t    %u          _.!",
"   5.v                        _.!",
"   wx                         _.!",
"   .............................!",
"   c.......yz...................!",
"                               .!",
"                                 "};
