/* XPM */
static char * simb20_xpm[] = {
"31 42 95 2",
"  	c #FFFFFF",
". 	c #000000",
"+ 	c #212121",
"@ 	c #8B8B8B",
"# 	c #B0B0B0",
"$ 	c #4D4D4D",
"% 	c #373737",
"& 	c #DADADA",
"* 	c #222222",
"= 	c #262626",
"- 	c #D4D4D4",
"; 	c #323232",
"> 	c #BCBCBC",
", 	c #B5B5B5",
"' 	c #171717",
") 	c #B1B1B1",
"! 	c #A8A8A8",
"~ 	c #010101",
"{ 	c #606060",
"] 	c #C4C4C4",
"^ 	c #464646",
"/ 	c #B9B9B9",
"( 	c #8E8E8E",
"_ 	c #565656",
": 	c #9A9A9A",
"< 	c #727272",
"[ 	c #9D9D9D",
"} 	c #E7E7E7",
"| 	c #D2D2D2",
"1 	c #202020",
"2 	c #B6B6B6",
"3 	c #878787",
"4 	c #E1E1E1",
"5 	c #B3B3B3",
"6 	c #090909",
"7 	c #989898",
"8 	c #747474",
"9 	c #1C1C1C",
"0 	c #494949",
"a 	c #686868",
"b 	c #2B2B2B",
"c 	c #2C2C2C",
"d 	c #444444",
"e 	c #070707",
"f 	c #050505",
"g 	c #F8F8F8",
"h 	c #BFBFBF",
"i 	c #707070",
"j 	c #8A8A8A",
"k 	c #E0E0E0",
"l 	c #101010",
"m 	c #343434",
"n 	c #F9F9F9",
"o 	c #E6E6E6",
"p 	c #C7C7C7",
"q 	c #656565",
"r 	c #C1C1C1",
"s 	c #181818",
"t 	c #555555",
"u 	c #4C4C4C",
"v 	c #1E1E1E",
"w 	c #929292",
"x 	c #3C3C3C",
"y 	c #8D8D8D",
"z 	c #525252",
"A 	c #D5D5D5",
"B 	c #969696",
"C 	c #B7B7B7",
"D 	c #5D5D5D",
"E 	c #3F3F3F",
"F 	c #5B5B5B",
"G 	c #737373",
"H 	c #FBFBFB",
"I 	c #9B9B9B",
"J 	c #2E2E2E",
"K 	c #2A2A2A",
"L 	c #CECECE",
"M 	c #C9C9C9",
"N 	c #232323",
"O 	c #E2E2E2",
"P 	c #818181",
"Q 	c #585858",
"R 	c #0C0C0C",
"S 	c #404040",
"T 	c #646464",
"U 	c #F7F7F7",
"V 	c #A0A0A0",
"W 	c #393939",
"X 	c #4F4F4F",
"Y 	c #F6F6F6",
"Z 	c #E9E9E9",
"` 	c #313131",
" .	c #9E9E9E",
"..	c #141414",
"+.	c #020202",
"  . . . . . . . . . . . . . . . . . . . . . . . . . .         ",
"                                                    +         ",
"                              @ #                             ",
"                              . .                             ",
"                            . . $                             ",
"                            . . %                             ",
"                            . . +                             ",
"                        & . . . .   * =                       ",
"                        - . . . .   * =                       ",
"  .               . .   . . . . .   * =                   .   ",
"    ; >           . .   . . . . .   * =               , ' )   ",
"    !             . .   . . . . .   ~ =               . .     ",
"      { .         . .   . .   . . . . =           ] . ^       ",
"      / ( . . _   . .   . . . . . . . =   : <   # . [         ",
"          . . .   . . } . . . | . . . 1   . .   . 2           ",
"            3 .   . . . . . . 4 5 . . =   6 . .               ",
"            3 . 7 . . . . 8 9 . | . . .   0 . a               ",
"            b . . . . . c   d . . . . .   . .                 ",
"          e . . . . . . . f . . . g * . f . .                 ",
"          . . . h . . . . . . . . i * . . . .                 ",
"          . . . . . . . . .   . . .   . . . .                 ",
"          . . . . . . . . 8   . . . * . . . .   j k           ",
"          . . . . . l m . . n . . 3 o p . . .   q .           ",
"          . . . . . r   . . . . . . . s . . .   . .           ",
"          . . . . 9 t u v   . . . . . . . . .   . .           ",
"          . . . . . . . c w . . . . . . . . .   . .           ",
"          x . . . . . . . . . . . . . . . . . y . .           ",
"            3 . . z q . . . . . . . . . . . . . . .           ",
"        .   3 . . . . . A     . . . . . . w . . . .           ",
"        . . . . . . . .       . . B * . . C   . . .           ",
"        . . . . D E . D       F .   G . . C   . . .           ",
"      { . . . .   . .         H .     y .   . . . .           ",
"        . . . . . . I                     0 . . . .           ",
"          . . . . z                       0 . . . J           ",
"          . . . . K L                   M . . . . .           ",
"          . . . . . N                 O . . . . . .           ",
"      { . . . . . . . . . 8       . . . . . . . . . .         ",
"    O . .     P . . . . . 8       . . . . . . . . Q R         ",
"    S T U       . m V                 V F . .         W {     ",
"  . X       3 . . . . . . . . . . . . . . . . .       Y Z '   ",
"  `          .` ` ` ... . . . . . . . ` 9 . . .           +.  ",
"                                            . V               "};
