/* XPM */
static char * simb6_xpm[] = {
"32 32 92 2",
"  	c #FFFFFF",
". 	c #5A5A5A",
"+ 	c #727272",
"@ 	c #717171",
"# 	c #5E5E5E",
"$ 	c #000000",
"% 	c #030303",
"& 	c #232323",
"* 	c #484848",
"= 	c #E3E3E3",
"- 	c #F0F0F0",
"; 	c #535353",
"> 	c #818181",
", 	c #666666",
"' 	c #3E3E3E",
") 	c #E2E2E2",
"! 	c #5C5C5C",
"~ 	c #DBDBDB",
"{ 	c #272727",
"] 	c #747474",
"^ 	c #414141",
"/ 	c #373737",
"( 	c #555555",
"_ 	c #D2D2D2",
": 	c #B1B1B1",
"< 	c #565656",
"[ 	c #F2F2F2",
"} 	c #A8A8A8",
"| 	c #BCBCBC",
"1 	c #383838",
"2 	c #E1E1E1",
"3 	c #E9E9E9",
"4 	c #F5F5F5",
"5 	c #020202",
"6 	c #191919",
"7 	c #828282",
"8 	c #A1A1A1",
"9 	c #2E2E2E",
"0 	c #8A8A8A",
"a 	c #8B8B8B",
"b 	c #A2A2A2",
"c 	c #ABABAB",
"d 	c #FCFCFC",
"e 	c #BBBBBB",
"f 	c #252525",
"g 	c #CECECE",
"h 	c #292929",
"i 	c #919191",
"j 	c #888888",
"k 	c #DADADA",
"l 	c #6B6B6B",
"m 	c #9F9F9F",
"n 	c #E0E0E0",
"o 	c #8F8F8F",
"p 	c #4F4F4F",
"q 	c #D9D9D9",
"r 	c #E4E4E4",
"s 	c #363636",
"t 	c #1F1F1F",
"u 	c #C0C0C0",
"v 	c #171717",
"w 	c #151515",
"x 	c #BEBEBE",
"y 	c #A4A4A4",
"z 	c #B8B8B8",
"A 	c #0F0F0F",
"B 	c #A9A9A9",
"C 	c #C5C5C5",
"D 	c #1E1E1E",
"E 	c #FAFAFA",
"F 	c #A7A7A7",
"G 	c #060606",
"H 	c #D7D7D7",
"I 	c #B4B4B4",
"J 	c #B2B2B2",
"K 	c #040404",
"L 	c #4E4E4E",
"M 	c #858585",
"N 	c #212121",
"O 	c #121212",
"P 	c #DFDFDF",
"Q 	c #DDDDDD",
"R 	c #1D1D1D",
"S 	c #7B7B7B",
"T 	c #ACACAC",
"U 	c #B6B6B6",
"V 	c #EFEFEF",
"W 	c #C6C6C6",
"X 	c #2B2B2B",
"Y 	c #0B0B0B",
"Z 	c #1C1C1C",
"` 	c #BABABA",
"                                                                ",
"          .                                         + @         ",
"        # $                                         % &         ",
"          * $ =                                 - $ $ ;         ",
"      >     , ' )                               ! $ ~           ",
"  { $ $ ]     ^ $                             $ $       $ $ $   ",
"  / $ $ $ $       $ (     _ $     : $       $ $ <   [ $ $ $ $   ",
"  / $ $ $ $ } } | $ 1 }   2 $ 3   $ $ 4   } $ 5 }   6 $ $ $ $   ",
"  7 $ $ , 8 $ $ $ 8 $ $ $ 9   $ $ $ 8 $ $ $ ] $ $ $ 0 a $ $ $   ",
"  / $ $ b   $ $ $   c $ $ 9   $ $ -   $ $ $   $ $ $ ~ d $ e $   ",
"  / $ $ b               $ f         g $ h               $ i $   ",
"  / $ $ b               j $ '     k $ l                 $ $ $   ",
"  / $ $ b                 m $ g   $ $ n                 $ $ $   ",
"  / $ $ b                   o $ $ p                     $ $ $   ",
"  / $ $ b                   q $ $ p                     $ $ $   ",
"  / $ $ b                 r s $ $ t u                   $ $ $   ",
"  / $ $ b                 v $ $ $ $ $ =                 $ $ $   ",
"  / $ $ b               $ $ w     x $ $ ~               $ $ $   ",
"  y $ $ b             z $ 9           A v             - $ $ $   ",
"  / $ $ b           c $ B             C $ D             $ $ $   ",
"  / $ $ b         E F G                 H $ I E         $ $ $   ",
"  / $ $ b       J K L                       L 5 J       $ $ $   ",
"  / $ $ b     M $                             $ $       $ $ $   ",
"  / $ $ $ t N O P                             Q $ N N R $ $ $   ",
"  / $ $ $ $ $ S                                   $ $ $ $ $ $   ",
"    $ $ $ $ $ S                                   $ $ $ $ $ $   ",
"    T $ $ $ $ $                                 U $ $ $ $ $ U   ",
"    V $ b $ $ $ $ $ $ $ $ $ $ $ $ $ $ $ $ $ $ $ $ $ $ $ $ $     ",
"  W $ $ $ $ $ $ $ $ $ $ $ $ $ $ $ $ $ $ $ $ $ $ $ $ $ $ $ $ $   ",
"  B i i $ $ $ $ $ $ $ $ $ $ $ $ $ $ $ $ $ $ $ $ $ $ $ $ $ X $   ",
"            $ $ $ Y k k k k k k $ $ > Z $ $ $ $ $ $ `           ",
"                                                                "};
