/* XPM */
static char * simb9_xpm[] = {
"33 30 61 1",
" 	c #FFFFFF",
".	c #0F0F0F",
"+	c #181818",
"@	c #868686",
"#	c #828282",
"$	c #000000",
"%	c #717171",
"&	c #4D4D4D",
"*	c #EEEEEE",
"=	c #3D3D3D",
"-	c #343434",
";	c #ABABAB",
">	c #FEFEFE",
",	c #232323",
"'	c #747474",
")	c #323232",
"!	c #6C6C6C",
"~	c #878787",
"{	c #F6F6F6",
"]	c #E4E4E4",
"^	c #7F7F7F",
"/	c #A5A5A5",
"(	c #A2A2A2",
"_	c #DFDFDF",
":	c #F4F4F4",
"<	c #FDFDFD",
"[	c #B6B6B6",
"}	c #DBDBDB",
"|	c #0E0E0E",
"1	c #A8A8A8",
"2	c #D3D3D3",
"3	c #696969",
"4	c #4B4B4B",
"5	c #2D2D2D",
"6	c #4C4C4C",
"7	c #272727",
"8	c #212121",
"9	c #121212",
"0	c #1C1C1C",
"a	c #E0E0E0",
"b	c #E9E9E9",
"c	c #565656",
"d	c #575757",
"e	c #595959",
"f	c #EFEFEF",
"g	c #151515",
"h	c #010101",
"i	c #D1D1D1",
"j	c #686868",
"k	c #111111",
"l	c #D8D8D8",
"m	c #484848",
"n	c #E3E3E3",
"o	c #F2F2F2",
"p	c #B3B3B3",
"q	c #BCBCBC",
"r	c #3B3B3B",
"s	c #FBFBFB",
"t	c #373737",
"u	c #DADADA",
"v	c #D2D2D2",
"                                 ",
"                                 ",
"             .+@@#@$$%@@$$&*     ",
"            =$$$$$$$$$$$$$$-     ",
"           ;$>             $,    ",
"           '$$$$$$$$$$$$$) !$$   ",
"           $$$$$$$$$$$$$$$  ~$   ",
"           {]]]]]]]]]]^/]($_ :$< ",
"                         [$}  |$ ",
"                         [$}  $$ ",
"                         1$2  $$ ",
"                         [$}  $$ ",
"                         [$}  $$ ",
"          33333333 33 3334$}  5$ ",
"          $$$$$$$$$$$$$$$$$}  6$ ",
"        %$7777777777789770$a  $$ ",
"       b$c                    $$ ",
"      d$ef                    $$ ",
"      gh      i$$   $$%       $$ ",
"     $$       $$$  j$$$       $$ ",
"     $$       $$$  j$$%       $$ ",
"     $$       $$$  j$$k       $$ ",
"   f$(        $$$  j$$%       $$ ",
"   f$l        $$$   $$%       $$ ",
"   m$n        op    qp        $$ ",
"  r$s                         $$ ",
"  t$$$$$$$$$$$$$$$$$$$$$$$$$$$$$ ",
"  t$$$$$$$$$$$$$$$$$$$$$$$$$$$$$ ",
"                    u         6v ",
"                                 "};
