/* XPM */
static char * simb24_xpm[] = {
"37 39 119 2",
"  	c #FFFFFF",
". 	c #D6D6D6",
"+ 	c #BCBCBC",
"@ 	c #2E2E2E",
"# 	c #000000",
"$ 	c #2B2B2B",
"% 	c #2C2C2C",
"& 	c #DFDFDF",
"* 	c #E3E3E3",
"= 	c #383838",
"- 	c #191919",
"; 	c #C0C0C0",
"> 	c #656565",
", 	c #BDBDBD",
"' 	c #212121",
") 	c #AEAEAE",
"! 	c #323232",
"~ 	c #222222",
"{ 	c #181818",
"] 	c #0A0A0A",
"^ 	c #2F2F2F",
"/ 	c #F6F6F6",
"( 	c #B1B1B1",
"_ 	c #3F3F3F",
": 	c #939393",
"< 	c #ECECEC",
"[ 	c #929292",
"} 	c #1A1A1A",
"| 	c #797979",
"1 	c #B6B6B6",
"2 	c #F0F0F0",
"3 	c #747474",
"4 	c #B3B3B3",
"5 	c #B8B8B8",
"6 	c #D9D9D9",
"7 	c #A0A0A0",
"8 	c #282828",
"9 	c #040404",
"0 	c #D3D3D3",
"a 	c #888888",
"b 	c #ACACAC",
"c 	c #F1F1F1",
"d 	c #CFCFCF",
"e 	c #FCFCFC",
"f 	c #0F0F0F",
"g 	c #DCDCDC",
"h 	c #252525",
"i 	c #020202",
"j 	c #737373",
"k 	c #8B8B8B",
"l 	c #BBBBBB",
"m 	c #141414",
"n 	c #DDDDDD",
"o 	c #C7C7C7",
"p 	c #DADADA",
"q 	c #C3C3C3",
"r 	c #6C6C6C",
"s 	c #393939",
"t 	c #585858",
"u 	c #606060",
"v 	c #686868",
"w 	c #363636",
"x 	c #161616",
"y 	c #CACACA",
"z 	c #6F6F6F",
"A 	c #0C0C0C",
"B 	c #FDFDFD",
"C 	c #9B9B9B",
"D 	c #484848",
"E 	c #B2B2B2",
"F 	c #7C7C7C",
"G 	c #343434",
"H 	c #0E0E0E",
"I 	c #8C8C8C",
"J 	c #757575",
"K 	c #444444",
"L 	c #DEDEDE",
"M 	c #3C3C3C",
"N 	c #EDEDED",
"O 	c #AAAAAA",
"P 	c #D5D5D5",
"Q 	c #C4C4C4",
"R 	c #434343",
"S 	c #0D0D0D",
"T 	c #F8F8F8",
"U 	c #D4D4D4",
"V 	c #494949",
"W 	c #E2E2E2",
"X 	c #E8E8E8",
"Y 	c #B9B9B9",
"Z 	c #9E9E9E",
"` 	c #262626",
" .	c #646464",
"..	c #A9A9A9",
"+.	c #FBFBFB",
"@.	c #060606",
"#.	c #F4F4F4",
"$.	c #D1D1D1",
"%.	c #999999",
"&.	c #898989",
"*.	c #EEEEEE",
"=.	c #636363",
"-.	c #777777",
";.	c #EBEBEB",
">.	c #2A2A2A",
",.	c #303030",
"'.	c #FEFEFE",
").	c #FAFAFA",
"!.	c #626262",
"~.	c #AFAFAF",
"{.	c #969696",
"].	c #A3A3A3",
"^.	c #A5A5A5",
"/.	c #1F1F1F",
"(.	c #5F5F5F",
"_.	c #171717",
":.	c #F7F7F7",
"<.	c #727272",
"[.	c #515151",
"                        . + + + + + + + + + + +                           ",
"                        @ # # # # # # # # # # #                           ",
"                    $ # # # # # # # # # # # # # # # % &                   ",
"                * = # # # # # # # # # # # - # # # # # ;                   ",
"                # # # # # #       >         , # # # # # '                 ",
"              # # # # = ) )       # # # #     ! # # # # # ~               ",
"            { # # # ]             # # # # ^     / ( # # # #               ",
"            { # _                 # # # # # # #     : _ & # <             ",
"            [ }       | | | | 1   # # # # # # #         2 #               ",
"                    / # # # # 3   # # # 4 # # #                           ",
"                  _ #             # # #     { {   5 # 6                   ",
"        7       7 8 9             # # #           0 # a b                 ",
"      c #       # #               # # #             d # '       #         ",
"      c #     # # e         f     # # #   g           h i j     # k       ",
"      l m   { #         n o ] :   # # #   p # o         & # q   # r       ",
"    s #     { #         > #       # t #       # #       & # 6   u # v     ",
"    s #     { #       w x y       # # #       y # z     & #       # #     ",
"    s #     { #       # A       _ # # # B       # #     & #       # #     ",
"    s #     { #     / # C   # # # # # # # # D   # #     & #       # #     ",
"    s #     { #       # C   # # # # # # # # #   # #     & # E     # #     ",
"    s #     { #       # C   # # # # # # # # #   # #     & # E     # #     ",
"    s #     { #     / # F   G G H # # # # G I   # #     & # E     J #     ",
"    s #     { #       # # c     K # # # L       # #     & #       M #     ",
"    s #     { #       N # #     K # # #     O # # P     & # Q     # #     ",
"    R S #   { #           i # T   # # #   d # ]         & # 1   # # U     ",
"      c #   { # O           # 3   # # #   V #           # #     # ^ W     ",
"      X #     # # Y         Z     # # #   c Z         ` # Z     #  .      ",
"      c # ..  +.# #               # # #               # '     @.# #.      ",
"        ..# X     _ #             # # #           5 # 6     f #           ",
"        $.# X     %.F   5 &.&.    # # #   *.&.&.&.=.-.;.    >.#           ",
"          # #           > # # 3 K # # #   # # # # #         # #           ",
"            # ,.        > # # # # # # #                 '.# @.).          ",
"            !.# # ~.E   {.# # # # # # #             ~.~.].~               ",
"              < # # #     ^.%.# # # # #           5 # # '                 ",
"                -.# # /././.  I # # # {.      (./._.# # '                 ",
"                    :.# # #     s # # {.      # # #                       ",
"                      <.<.<.# # # # # # # # # <.                          ",
"                            # # # # # # # # [.                            ",
"                                                                          "};
