/* XPM */
static char * simb27_xpm[] = {
"27 29 46 1",
" 	c #FFFFFF",
".	c #FDFDFD",
"+	c #D0D0D0",
"@	c #000000",
"#	c #CDCDCD",
"$	c #1E1E1E",
"%	c #6C6C6C",
"&	c #A9A9A9",
"*	c #181818",
"=	c #525252",
"-	c #444444",
";	c #6D6D6D",
">	c #2F2F2F",
",	c #939393",
"'	c #606060",
")	c #C5C5C5",
"!	c #797979",
"~	c #2E2E2E",
"{	c #8F8F8F",
"]	c #343434",
"^	c #141414",
"/	c #E4E4E4",
"(	c #B2B2B2",
"_	c #626262",
":	c #BBBBBB",
"<	c #686868",
"[	c #909090",
"}	c #4F4F4F",
"|	c #545454",
"1	c #1A1A1A",
"2	c #BABABA",
"3	c #FAFAFA",
"4	c #F9F9F9",
"5	c #BFBFBF",
"6	c #ACACAC",
"7	c #D2D2D2",
"8	c #919191",
"9	c #656565",
"0	c #979797",
"a	c #A0A0A0",
"b	c #CACACA",
"c	c #9D9D9D",
"d	c #3E3E3E",
"e	c #ABABAB",
"f	c #F8F8F8",
"g	c #949494",
"                           ",
"                           ",
"                           ",
"                           ",
"                           ",
"                           ",
"                           ",
"   .......                 ",
"  +@@@@@@@                 ",
" #$@@@@@@@%                ",
" &@       @                ",
" &*    @=                  ",
" &-    ;>,                 ",
" &@     @@                 ",
" &@@    @@@                ",
"  '@    @@@)               ",
"    @! @~{{@]              ",
"    @^ @/  (_              ",
"     @@                    ",
"@:  @@<@=                  ",
"@[}}@| @12                 ",
" @@@3  4@@                 ",
" 5@@     1@                ",
"  '@[    6@                ",
"   7@8   9@                ",
" 0a      9@                ",
" b@ccccccd@                ",
"  '@@@@@@@e                ",
"  f@@@@@@g                 "};
