/* XPM */
static char * simb1_xpm[] = {
"32 29 74 1",
" 	c #FFFFFF",
".	c #6F6F6F",
"+	c #949494",
"@	c #EDEDED",
"#	c #C3C3C3",
"$	c #484848",
"%	c #898989",
"&	c #2A2A2A",
"*	c #000000",
"=	c #FDFDFD",
"-	c #5A5A5A",
";	c #0C0C0C",
">	c #989898",
",	c #666666",
"'	c #3A3A3A",
")	c #424242",
"!	c #0E0E0E",
"~	c #010101",
"{	c #303030",
"]	c #D9D9D9",
"^	c #121212",
"/	c #A6A6A6",
"(	c #CFCFCF",
"_	c #7D7D7D",
":	c #222222",
"<	c #8D8D8D",
"[	c #3E3E3E",
"}	c #464646",
"|	c #353535",
"1	c #969696",
"2	c #FBFBFB",
"3	c #F2F2F2",
"4	c #151515",
"5	c #E5E5E5",
"6	c #2D2D2D",
"7	c #020202",
"8	c #E0E0E0",
"9	c #8C8C8C",
"0	c #050505",
"a	c #181818",
"b	c #ABABAB",
"c	c #3C3C3C",
"d	c #5B5B5B",
"e	c #F9F9F9",
"f	c #F3F3F3",
"g	c #3F3F3F",
"h	c #BFBFBF",
"i	c #CECECE",
"j	c #3B3B3B",
"k	c #9D9D9D",
"l	c #8A8A8A",
"m	c #131313",
"n	c #101010",
"o	c #373737",
"p	c #656565",
"q	c #8B8B8B",
"r	c #434343",
"s	c #717171",
"t	c #636363",
"u	c #CDCDCD",
"v	c #D1D1D1",
"w	c #747474",
"x	c #DDDDDD",
"y	c #939393",
"z	c #FEFEFE",
"A	c #585858",
"B	c #F4F4F4",
"C	c #B6B6B6",
"D	c #EFEFEF",
"E	c #B4B4B4",
"F	c #232323",
"G	c #DBDBDB",
"H	c #D0D0D0",
"I	c #C8C8C8",
"  .     ...    + . @  .     #   ",
" $$%                       $&*= ",
" **-                       ***= ",
" ****   *;   *   *>  **   ****= ",
" ****,.'**..***.**)!***~.{****= ",
" ***]^**/(***]***]***]]**_]***= ",
" **-  :<           [}  ::  ***= ",
" **|  11 21     =113   11  ***= ",
" *** 4******5   ****   **6 ***= ",
" **7 2******8 97****0  *** ***= ",
" **a      b*c ,*   d*  *** ***= ",
" **-     e**f g*    *h 99i *j&= ",
" ***     **k  l*    *      *m*= ",
" **-    c**9  n*    *      * *= ",
" **o     pp*q l*    *      ***= ",
" ***       r* l*    *s     ***= ",
" *** 47    t* l*    *s     ***= ",
" ***  ******5  n*****      ***= ",
" ***  u****v    ****       w**= ",
" o**   ((((     ((((       x**= ",
" o**yz                     ***= ",
" o***y                    a***= ",
" o****A                  A****= ",
" B*****                 C*****= ",
"  D**************************E  ",
"    ***********************F    ",
"     i********************G     ",
"      H^I                       ",
"                                "};
