/* XPM */
static char * simb8_xpm[] = {
"33 29 62 1",
" 	c #FFFFFF",
".	c #7C7C7C",
"+	c #6C6C6C",
"@	c #000000",
"#	c #DBDBDB",
"$	c #F3F3F3",
"%	c #212121",
"&	c #D8D8D8",
"*	c #252525",
"=	c #DDDDDD",
"-	c #060606",
";	c #1E1E1E",
">	c #ABABAB",
",	c #838383",
"'	c #939393",
")	c #828282",
"!	c #5E5E5E",
"~	c #3E3E3E",
"{	c #DFDFDF",
"]	c #343434",
"^	c #FEFEFE",
"/	c #8E8E8E",
"(	c #B4B4B4",
"_	c #4C4C4C",
":	c #9B9B9B",
"<	c #C2C2C2",
"[	c #BFBFBF",
"}	c #E2E2E2",
"|	c #505050",
"1	c #393939",
"2	c #858585",
"3	c #4A4A4A",
"4	c #A8A8A8",
"5	c #414141",
"6	c #434343",
"7	c #E4E4E4",
"8	c #373737",
"9	c #1D1D1D",
"0	c #5D5D5D",
"a	c #2F2F2F",
"b	c #656565",
"c	c #EFEFEF",
"d	c #1A1A1A",
"e	c #FCFCFC",
"f	c #ECECEC",
"g	c #202020",
"h	c #0C0C0C",
"i	c #A2A2A2",
"j	c #3B3B3B",
"k	c #E7E7E7",
"l	c #989898",
"m	c #303030",
"n	c #EDEDED",
"o	c #F2F2F2",
"p	c #888888",
"q	c #737373",
"r	c #8B8B8B",
"s	c #EEEEEE",
"t	c #F4F4F4",
"u	c #F7F7F7",
"v	c #F8F8F8",
"w	c #474747",
"                                 ",
"             .+++++++++++++      ",
"             @@@@@@@@@@@@@@#     ",
"           $@%&******=*****-;    ",
"           >@,'''''''''''' )!~{  ",
"           >@@@@@@@@@@@@@@  =@]  ",
"            ^^^^^@^^^^/@^(@#  @@ ",
"                          @#  _@ ",
"                          @#  :@ ",
"                         <@#  _@ ",
"                         [@#  _@ ",
"                         }@#  _@ ",
"          |||||||||||||||1@#  _@ ",
"          @@@@@@@@@@@@@@@@@#  _@ ",
"        2@3    4555555556557  _@ ",
"       890                    a@ ",
"       @b                     _@ ",
"     c@d         {@@e         _@ ",
"     !@          @@@f         _@ ",
"     g@          @@@          _@ ",
"    h@@          @@@          _@ ",
"   e@i           j@@k         _@ ",
"   c@i            @l          _@ ",
"   m@n                        _@ ",
"  8@o                         @@ ",
"  8@@@@)@@iiii9ii@@@@p@i@q@ri!@@ ",
"  8@@@@@@@@@@@@@@@@@@@@@@@@@@@@@ ",
"   ssts  s     u     s       vw@ ",
"                                 "};
