/* XPM */
static char * simb16_xpm[] = {
"25 28 55 1",
" 	c #FFFFFF",
".	c #3A3A3A",
"+	c #F2F2F2",
"@	c #000000",
"#	c #565656",
"$	c #5E5E5E",
"%	c #C7C7C7",
"&	c #686868",
"*	c #989898",
"=	c #C8C8C8",
"-	c #616161",
";	c #EFEFEF",
">	c #A2A2A2",
",	c #373737",
"'	c #717171",
")	c #080808",
"!	c #C6C6C6",
"~	c #888888",
"{	c #111111",
"]	c #858585",
"^	c #050505",
"/	c #151515",
"(	c #D8D8D8",
"_	c #060606",
":	c #EEEEEE",
"<	c #C9C9C9",
"[	c #C4C4C4",
"}	c #8F8F8F",
"|	c #DEDEDE",
"1	c #4E4E4E",
"2	c #292929",
"3	c #B5B5B5",
"4	c #1E1E1E",
"5	c #767676",
"6	c #585858",
"7	c #C2C2C2",
"8	c #D7D7D7",
"9	c #353535",
"0	c #040404",
"a	c #8E8E8E",
"b	c #E8E8E8",
"c	c #DDDDDD",
"d	c #323232",
"e	c #1B1B1B",
"f	c #252525",
"g	c #CCCCCC",
"h	c #0A0A0A",
"i	c #AAAAAA",
"j	c #B6B6B6",
"k	c #010101",
"l	c #B8B8B8",
"m	c #737373",
"n	c #656565",
"o	c #3D3D3D",
"p	c #D2D2D2",
"                         ",
"        .........        ",
"       +@@@@@@@@@        ",
"     @@@# $% & ##@@*     ",
"    =@@@         @@@-    ",
"   ;@>             &@    ",
"  ,@                 @'  ",
"  ,)    !~~~~~~~~    @'  ",
"  @{    ]@@@@@@@@    @'  ",
" @@     ^@/          (_@ ",
":@<     @[            }@ ",
"|@<     @1            }@ ",
"=@<     @@23444       }@ ",
"=@<     @@@@@@@5      }@ ",
"=@<     @6            7@ ",
"8@<     @9            }@ ",
"=@<     @0            a@ ",
"=@<     @[            }@ ",
"b@@     @[            }@ ",
" c@d    @e           4@c ",
"  ,{    fg           @@  ",
"  ,h                 @@  ",
"  !i@               @j   ",
"   ;@              k@    ",
"     @@@         @@*     ",
"     l}m@e@@@n/o@}}p     ",
"        @@@@@@@@@        ",
"                         "};
