/* XPM */
static char * simb3_xpm[] = {
"34 29 63 1",
" 	c #FFFFFF",
".	c #000000",
"+	c #949494",
"@	c #454545",
"#	c #EBEBEB",
"$	c #7F7F7F",
"%	c #BFBFBF",
"&	c #CDCDCD",
"*	c #020202",
"=	c #7D7D7D",
"-	c #EAEAEA",
";	c #A3A3A3",
">	c #ADADAD",
",	c #7A7A7A",
"'	c #B2B2B2",
")	c #2E2E2E",
"!	c #989898",
"~	c #0C0C0C",
"{	c #ABABAB",
"]	c #A6A6A6",
"^	c #636363",
"/	c #606060",
"(	c #030303",
"_	c #EEEEEE",
":	c #5C5C5C",
"<	c #B9B9B9",
"[	c #FBFBFB",
"}	c #818181",
"|	c #FAFAFA",
"1	c #D7D7D7",
"2	c #FEFEFE",
"3	c #575757",
"4	c #444444",
"5	c #414141",
"6	c #3F3F3F",
"7	c #4B4B4B",
"8	c #4A4A4A",
"9	c #EFEFEF",
"0	c #898989",
"a	c #F0F0F0",
"b	c #A0A0A0",
"c	c #F2F2F2",
"d	c #E5E5E5",
"e	c #313131",
"f	c #060606",
"g	c #C4C4C4",
"h	c #1B1B1B",
"i	c #CFCFCF",
"j	c #373737",
"k	c #F5F5F5",
"l	c #BCBCBC",
"m	c #F1F1F1",
"n	c #9F9F9F",
"o	c #F3F3F3",
"p	c #9B9B9B",
"q	c #333333",
"r	c #8B8B8B",
"s	c #151515",
"t	c #6D6D6D",
"u	c #4E4E4E",
"v	c #CBCBCB",
"w	c #C2C2C2",
"x	c #DFDFDF",
"                                  ",
"  ...                       +..@  ",
"  ....    #   $%  .&   *   ....@  ",
"  ....= -..;>;., ;..' ).;  ...*@  ",
"  ...!&..~{...]...^........ /.(@  ",
"  ...#&.._ :.)  ..  ..< ... +..@  ",
"  ...[                      +..@  ",
"  ...#   }...)   ....   :.. +..@  ",
"  ...[   ....)  |....   ... +..@  ",
"  ...   .~      .   1.<2... +..@  ",
"  ... _34      5.   1.< 6.7 +..@  ",
"  ... &.8///9  0.   a.<  bc +..@  ",
"  ... &.....d  5.   1.<     +..@  ",
"  ...9&..eeef1 5.    .<     +..@  ",
"  ...#&.g   h. 5.    .<     +..@  ",
"  ...#&.g   h. 5.   1.<     +..@  ",
"  ...#if.....j  ..k...l     +..@  ",
"  ...m  ....8   [....n      +..@  ",
"  ...o  'pppk    ppp{       +..@  ",
"  ...#                      +..@  ",
"  ....q                    ....@  ",
"  .....r                  s....@  ",
"  9.....                 t.....i  ",
"   ...........................[   ",
"    u........................v    ",
"     n......................w     ",
"      &.........xx........%       ",
"                                  ",
"                                  "};
