/* XPM */
static char * simb22_xpm[] = {
"39 28 91 1",
" 	c #FFFFFF",
".	c #000000",
"+	c #323232",
"@	c #3F3F3F",
"#	c #B8B8B8",
"$	c #2A2A2A",
"%	c #E7E7E7",
"&	c #464646",
"*	c #A7A7A7",
"=	c #D6D6D6",
"-	c #ECECEC",
";	c #0E0E0E",
">	c #565656",
",	c #4E4E4E",
"'	c #8B8B8B",
")	c #1B1B1B",
"!	c #BABABA",
"~	c #DBDBDB",
"{	c #E0E0E0",
"]	c #030303",
"^	c #FDFDFD",
"/	c #FEFEFE",
"(	c #757575",
"_	c #D4D4D4",
":	c #F1F1F1",
"<	c #656565",
"[	c #D2D2D2",
"}	c #232323",
"|	c #6C6C6C",
"1	c #ADADAD",
"2	c #646464",
"3	c #E6E6E6",
"4	c #010101",
"5	c #949494",
"6	c #303030",
"7	c #393939",
"8	c #3E3E3E",
"9	c #747474",
"0	c #D9D9D9",
"a	c #E8E8E8",
"b	c #858585",
"c	c #525252",
"d	c #888888",
"e	c #4D4D4D",
"f	c #B1B1B1",
"g	c #B5B5B5",
"h	c #CFCFCF",
"i	c #C1C1C1",
"j	c #979797",
"k	c #DADADA",
"l	c #020202",
"m	c #292929",
"n	c #D7D7D7",
"o	c #595959",
"p	c #242424",
"q	c #5D5D5D",
"r	c #D5D5D5",
"s	c #F6F6F6",
"t	c #F3F3F3",
"u	c #E4E4E4",
"v	c #7C7C7C",
"w	c #262626",
"x	c #BEBEBE",
"y	c #EDEDED",
"z	c #1A1A1A",
"A	c #686868",
"B	c #FBFBFB",
"C	c #9C9C9C",
"D	c #BCBCBC",
"E	c #E9E9E9",
"F	c #FAFAFA",
"G	c #A0A0A0",
"H	c #A9A9A9",
"I	c #040404",
"J	c #F9F9F9",
"K	c #898989",
"L	c #070707",
"M	c #F0F0F0",
"N	c #BFBFBF",
"O	c #D0D0D0",
"P	c #989898",
"Q	c #414141",
"R	c #181818",
"S	c #5A5A5A",
"T	c #EAEAEA",
"U	c #343434",
"V	c #DEDEDE",
"W	c #E1E1E1",
"X	c #A5A5A5",
"Y	c #1C1C1C",
"Z	c #ABABAB",
"                                       ",
"              ...........+             ",
"              ............             ",
"         @....           #....         ",
"       ...  $%            $$&* ==-     ",
"      ;..>                    ,..'     ",
"     ).!~                      !!.{    ",
"    *]    ^ /^                   (_    ",
"   :.    @. <.                     .[  ",
"   :.    @.}..   |     |  1|||||   .2  ",
"   3.    4....   .     . 5......   .6  ",
"  7.    ..   8.9 .     . #.0       ab5 ",
"  7.    .c    .9 .     ..#.0        .. ",
"  7.    .d    .9 .e   f.g#.0        .. ",
"  7.   h.i    .9 ..j k.. #..ll      .. ",
"  7.    .i    .9  .. ..  #....      .. ",
"  7.    .i    .9  .. ..  #.0        .. ",
"  {.m  h.i    .9  nop.q  #.0       a.. ",
"   :.  r.. stu.9   v.w   #.x       .y  ",
"   :.    z....A     .w   #.....^   .2  ",
"   B.+    ...C      .D   E.....F G;.   ",
"    H.a                          I.J   ",
"     KL..M                    N.OPQ    ",
"      R..S                    ...i     ",
"        TU....           #.....[V      ",
"          z.zz.A.W....233X....         ",
"              ...........Y             ",
"              :ZZZZZZZZZZ              "};
