/* XPM */
static char * simb11_xpm[] = {
"31 30 88 1",
" 	c #FFFFFF",
".	c #151515",
"+	c #000000",
"@	c #949494",
"#	c #FDFDFD",
"$	c #CDCDCD",
"%	c #C4C4C4",
"&	c #6A6A6A",
"*	c #474747",
"=	c #E9E9E9",
"-	c #4B4B4B",
";	c #E5E5E5",
">	c #2C2C2C",
",	c #1A1A1A",
"'	c #4D4D4D",
")	c #717171",
"!	c #3D3D3D",
"~	c #3C3C3C",
"{	c #292929",
"]	c #848484",
"^	c #E7E7E7",
"/	c #D7D7D7",
"(	c #5C5C5C",
"_	c #1E1E1E",
":	c #1F1F1F",
"<	c #A2A2A2",
"[	c #020202",
"}	c #9F9F9F",
"|	c #6C6C6C",
"1	c #F8F8F8",
"2	c #EAEAEA",
"3	c #B1B1B1",
"4	c #202020",
"5	c #313131",
"6	c #666666",
"7	c #4F4F4F",
"8	c #606060",
"9	c #343434",
"0	c #555555",
"a	c #767676",
"b	c #6B6B6B",
"c	c #414141",
"d	c #DFDFDF",
"e	c #484848",
"f	c #E6E6E6",
"g	c #9D9D9D",
"h	c #727272",
"i	c #BBBBBB",
"j	c #FCFCFC",
"k	c #FBFBFB",
"l	c #FAFAFA",
"m	c #3E3E3E",
"n	c #F4F4F4",
"o	c #1D1D1D",
"p	c #D2D2D2",
"q	c #191919",
"r	c #DEDEDE",
"s	c #E8E8E8",
"t	c #888888",
"u	c #7B7B7B",
"v	c #252525",
"w	c #141414",
"x	c #EBEBEB",
"y	c #0C0C0C",
"z	c #A6A6A6",
"A	c #636363",
"B	c #8B8B8B",
"C	c #BDBDBD",
"D	c #F5F5F5",
"E	c #3B3B3B",
"F	c #696969",
"G	c #5A5A5A",
"H	c #C9C9C9",
"I	c #F6F6F6",
"J	c #A5A5A5",
"K	c #B9B9B9",
"L	c #101010",
"M	c #2F2F2F",
"N	c #030303",
"O	c #7A7A7A",
"P	c #C6C6C6",
"Q	c #181818",
"R	c #9B9B9B",
"S	c #171717",
"T	c #808080",
"U	c #464646",
"V	c #404040",
"W	c #5D5D5D",
"                               ",
"     .+                     @+#",
"      $+%   +++++++++++++& ++* ",
"      =-;  >+,'+++++++++++)+!  ",
"        ~{+]      ^ /  //(+_   ",
"         :++++++++++++<[}+++|  ",
"         1++++++++++++++++2++  ",
"          3++4333333335+++ 367#",
"           8+9        *+++  @+#",
"            0+a      b+c++  @+#",
"             )+a    +!d ++  @+#",
"              )+   e+f  ++  @+#",
"               c+ ++    ++  @+#",
"        g+++++++++++++h+++  @+#",
"        ++++++++++++++++++  @+#",
"      $+i jk  lm++++nnnnnl  @+#",
"     .+op     &++ q++r      @+#",
"     .+      s++t  @+u      @+#",
"    ++/      ++$    ++v     @+#",
"    +w      x.       y+[    @+#",
"   z+x     A+         B+C   @+#",
"  DEF1   1GHI          J,K  @+#",
"  L+     n+             ++  @+#",
"  ++    MNO             PQ+ @+#",
" R+S   T+U                VTE+j",
" ++   $+%                  +++#",
"1+++++++++++++++++++++++++++++#",
" +++++++++++++++++++++++++++++#",
"                            W+ ",
"                            I2 "};
