/* XPM */
static char * simb28_xpm[] = {
"24 41 88 1",
" 	c #FFFFFF",
".	c #BBBBBB",
"+	c #000000",
"@	c #5F5F5F",
"#	c #F3F3F3",
"$	c #B5B5B5",
"%	c #4E4E4E",
"&	c #020202",
"*	c #EFEFEF",
"=	c #8C8C8C",
"-	c #030303",
";	c #111111",
">	c #BCBCBC",
",	c #EEEEEE",
"'	c #4F4F4F",
")	c #747474",
"!	c #222222",
"~	c #909090",
"{	c #C9C9C9",
"]	c #363636",
"^	c #404040",
"/	c #C8C8C8",
"(	c #383838",
"_	c #525252",
":	c #484848",
"<	c #333333",
"[	c #B4B4B4",
"}	c #D9D9D9",
"|	c #878787",
"1	c #A8A8A8",
"2	c #131313",
"3	c #6D6D6D",
"4	c #E1E1E1",
"5	c #5D5D5D",
"6	c #F1F1F1",
"7	c #2B2B2B",
"8	c #AFAFAF",
"9	c #E6E6E6",
"0	c #C3C3C3",
"a	c #050505",
"b	c #202020",
"c	c #797979",
"d	c #272727",
"e	c #454545",
"f	c #CBCBCB",
"g	c #252525",
"h	c #F0F0F0",
"i	c #DEDEDE",
"j	c #919191",
"k	c #010101",
"l	c #FCFCFC",
"m	c #6A6A6A",
"n	c #0F0F0F",
"o	c #282828",
"p	c #161616",
"q	c #7F7F7F",
"r	c #FAFAFA",
"s	c #E8E8E8",
"t	c #444444",
"u	c #B8B8B8",
"v	c #CDCDCD",
"w	c #191919",
"x	c #636363",
"y	c #D5D5D5",
"z	c #262626",
"A	c #D8D8D8",
"B	c #9B9B9B",
"C	c #D7D7D7",
"D	c #7C7C7C",
"E	c #737373",
"F	c #606060",
"G	c #101010",
"H	c #595959",
"I	c #1E1E1E",
"J	c #141414",
"K	c #323232",
"L	c #8B8B8B",
"M	c #2D2D2D",
"N	c #F2F2F2",
"O	c #C4C4C4",
"P	c #1B1B1B",
"Q	c #C5C5C5",
"R	c #A0A0A0",
"S	c #666666",
"T	c #656565",
"U	c #DFDFDF",
"V	c #888888",
"W	c #999999",
"                        ",
"                        ",
"          .++@#         ",
"         $++++%         ",
"       &++***=+-;>      ",
"     ,'++)    !++~{     ",
"     ++          ++     ",
"    ]^/    ()    /+(    ",
"    +_     +:     ++    ",
"    +_     +<     ++    ",
"  [++      ++      ++}  ",
"  |+       ++      1+2  ",
"  3+  4++5+++++++6  +7  ",
"  ++  8++++++++++}  +}  ",
"  ++       ++9      ++  ",
" ++0       ++       a+b ",
" +c        ++        d+ ",
" +c        ++         + ",
" +c        +e        d+ ",
" +c                  d+ ",
" +c      fg++_h      d+ ",
" +c      =++++i      d+j",
" +c     +)    k7     d+l",
" +c     +)           d+m",
" +c     +)           d+ ",
" +c     +n           d+ ",
" +c     op+++qr      d+s",
" +t      =++++i      ++m",
"  ++      fuv wx    b+uy",
"  ++          !z    ++  ",
"  ++    #A    !z    +B  ",
"  ++    +)    +z   C+D  ",
"  E+    +)FzzG+z   u+}  ",
"   H+s   =++++I   i+Ji  ",
"    +K   LMMMM    ++    ",
"    +_            ++    ",
"    N+-          +++    ",
"     OP++)    QR+S      ",
"      T++)    G++U      ",
"       yyV++++uyy       ",
"         W++++4         "};
