/* XPM */
static char * simb14_xpm[] = {
"26 29 52 1",
" 	c #FFFFFF",
".	c #888888",
"+	c #000000",
"@	c #D6D6D6",
"#	c #111111",
"$	c #0B0B0B",
"%	c #080808",
"&	c #040404",
"*	c #4F4F4F",
"=	c #2C2C2C",
"-	c #C2C2C2",
";	c #868686",
">	c #EEEEEE",
",	c #DBDBDB",
"'	c #D2D2D2",
")	c #505050",
"!	c #D5D5D5",
"~	c #ACACAC",
"{	c #202020",
"]	c #252525",
"^	c #E5E5E5",
"/	c #373737",
"(	c #D7D7D7",
"_	c #545454",
":	c #D0D0D0",
"<	c #B9B9B9",
"[	c #858585",
"}	c #8A8A8A",
"|	c #020202",
"1	c #A1A1A1",
"2	c #353535",
"3	c #A6A6A6",
"4	c #A2A2A2",
"5	c #575757",
"6	c #0C0C0C",
"7	c #EFEFEF",
"8	c #C5C5C5",
"9	c #646464",
"0	c #464646",
"a	c #E0E0E0",
"b	c #909090",
"c	c #C8C8C8",
"d	c #929292",
"e	c #B5B5B5",
"f	c #5F5F5F",
"g	c #474747",
"h	c #262626",
"i	c #E6E6E6",
"j	c #7B7B7B",
"k	c #636363",
"l	c #494949",
"m	c #656565",
"                          ",
"        .++++++++         ",
"     @+++##$+#+%&++*      ",
"     =++-        ;++>     ",
"    +++,          '++)    ",
"   !+~              {]^   ",
"  /+                 (+   ",
"  /+      ______     (+:  ",
"  /+      ++++++     (+<  ",
" ++     [+     }+      +| ",
" ++     [+     }+      +  ",
" ++     [+     1+      +2 ",
" ++     [+     }+      +| ",
" ++     [+3  445+      +| ",
" ++     [++++++++      +| ",
" ++     [+677+7++      +| ",
" ++     ++     }+      +| ",
" ++     [+     8+      +| ",
" 9+0    [+     }+    a+bc ",
"  /+    [+     d+    c+   ",
"  /+                 ++   ",
"  e+f8              f+g   ",
"   7+4              +h    ",
"     +++i        +++i     ",
"     ~jk+[[[[[[[[++l      ",
"        m++++++++         ",
"          $               ",
"                          ",
"                          "};
