/* XPM */
static char * simb19_xpm[] = {
"31 31 86 1",
" 	c #FFFFFF",
".	c #393939",
"+	c #000000",
"@	c #2A2A2A",
"#	c #3E3E3E",
"$	c #262626",
"%	c #212121",
"&	c #585858",
"*	c #898989",
"=	c #ECECEC",
"-	c #141414",
";	c #B1B1B1",
">	c #171717",
",	c #D3D3D3",
"'	c #EDEDED",
")	c #EEEEEE",
"!	c #E9E9E9",
"~	c #0B0B0B",
"{	c #595959",
"]	c #090909",
"^	c #1F1F1F",
"/	c #9B9B9B",
"(	c #919191",
"_	c #A8A8A8",
":	c #E5E5E5",
"<	c #787878",
"[	c #0F0F0F",
"}	c #0C0C0C",
"|	c #FBFBFB",
"1	c #181818",
"2	c #080808",
"3	c #DEDEDE",
"4	c #313131",
"5	c #3F3F3F",
"6	c #292929",
"7	c #D9D9D9",
"8	c #828282",
"9	c #F9F9F9",
"0	c #E8E8E8",
"a	c #656565",
"b	c #F2F2F2",
"c	c #434343",
"d	c #9C9C9C",
"e	c #A5A5A5",
"f	c #2C2C2C",
"g	c #5B5B5B",
"h	c #0E0E0E",
"i	c #C8C8C8",
"j	c #272727",
"k	c #F8F8F8",
"l	c #E0E0E0",
"m	c #343434",
"n	c #CCCCCC",
"o	c #7C7C7C",
"p	c #C5C5C5",
"q	c #3B3B3B",
"r	c #777777",
"s	c #C4C4C4",
"t	c #D5D5D5",
"u	c #F3F3F3",
"v	c #A0A0A0",
"w	c #B7B7B7",
"x	c #D2D2D2",
"y	c #C0C0C0",
"z	c #161616",
"A	c #2F2F2F",
"B	c #191919",
"C	c #9E9E9E",
"D	c #ABABAB",
"E	c #626262",
"F	c #717171",
"G	c #DADADA",
"H	c #B3B3B3",
"I	c #070707",
"J	c #D1D1D1",
"K	c #B5B5B5",
"L	c #0D0D0D",
"M	c #B8B8B8",
"N	c #FDFDFD",
"O	c #606060",
"P	c #8B8B8B",
"Q	c #222222",
"R	c #F7F7F7",
"S	c #BFBFBF",
"T	c #050505",
"U	c #6A6A6A",
"                               ",
"  .+++++++++++++++++++++++++@  ",
"  .++     #+$        ####+++%  ",
"  .++                    &++%  ",
"  .+*+=     -+++++      ++++%  ",
"  .+;>,' )!!+>>~>>!!!  !+{ +%  ",
"  .+  ]^ +++/     +++ (+   +%  ",
"  .+   +++__      :__++<   +%  ",
"  .[   ++}           ++|   +%  ",
"  .+  1+.+2        3+]%+   +%  ",
"  .+  14 5+6      7++ (+   +%  ",
"  .+ 8+4   +/    |+!  (++  +%  ",
"  .+9+0     a+  b+      +c +%  ",
"  .+ +0     d'eefg      ++ h%  ",
"  .+i+0       +++       ++ j%  ",
"  .+k+0       +++       ++ j%  ",
"  .+ +0     l+++mn      ++ j%  ",
"  .+ +<     a+o  +      ++ j%  ",
"  .+ p+4   qrp    sq   q+t j%  ",
"  .+  1+  u+v     w+x  ++  j%  ",
"  .+   + y+         +$ ++  jz  ",
"  .+   +ABC         D[EF   j+  ",
"  .+   |++           G+w   j+  ",
"   +   +>}+++     H++Ie+J  j+  ",
"   + KLrM rrA****NO++P Qr* j+  ",
"   + O+     a++++++GR   S+ j+  ",
"   ++T0      22222       2k++  ",
"   ++v                    +++  ",
"   ++++++++++++++++++++++++++U ",
"   ++++++++++++++++++++++++++  ",
"                            %  "};
