/* XPM */
static char * simb15_xpm[] = {
"27 28 59 1",
" 	c #FFFFFF",
".	c #121212",
"+	c #000000",
"@	c #D8D8D8",
"#	c #282828",
"$	c #080808",
"%	c #EFEFEF",
"&	c #B5B5B5",
"*	c #565656",
"=	c #F3F3F3",
"-	c #474747",
";	c #757575",
">	c #B9B9B9",
",	c #FEFEFE",
"'	c #808080",
")	c #EEEEEE",
"!	c #A2A2A2",
"~	c #010101",
"{	c #373737",
"]	c #717171",
"^	c #0A0A0A",
"/	c #BABABA",
"(	c #6E6E6E",
"_	c #B1B1B1",
":	c #313131",
"<	c #111111",
"[	c #858585",
"}	c #1C1C1C",
"|	c #737373",
"1	c #232323",
"2	c #131313",
"3	c #141414",
"4	c #C9C9C9",
"5	c #8A8A8A",
"6	c #8F8F8F",
"7	c #292929",
"8	c #DEDEDE",
"9	c #FCFCFC",
"0	c #919191",
"a	c #F1F1F1",
"b	c #444444",
"c	c #9B9B9B",
"d	c #E6E6E6",
"e	c #C8C8C8",
"f	c #C4C4C4",
"g	c #767676",
"h	c #525252",
"i	c #6D6D6D",
"j	c #787878",
"k	c #BDBDBD",
"l	c #C2C2C2",
"m	c #B3B3B3",
"n	c #686868",
"o	c #939393",
"p	c #CDCDCD",
"q	c #989898",
"r	c #A9A9A9",
"s	c #878787",
"t	c #FDFDFD",
"                           ",
"         .++++++++         ",
"      @@++##+##$##@@%      ",
"      +++&        ++*      ",
"    =-;>>         ,'++     ",
"    )+!              ~     ",
"   {+                 +]   ",
"   {^    /((((((_     +:   ",
"   {<    [+++++++     ++   ",
"  +}     |+11   2+     3+  ",
"  +4     ++     5+     6+  ",
"  +4     ++     7+     8+  ",
"  +4     ++++++++9     0+  ",
" a+4     ++bbbbbc      6+  ",
" d+4     ++            6+  ",
" e+4     +f            6+  ",
" e+4     +f            6+  ",
" e+4     +g            *+  ",
" )++     ++           h++  ",
"   {<    +f           +i   ",
"   {<                 +]   ",
"   {$j               j+k   ",
"    l+m             n+     ",
"      +++         ++o      ",
"      +++p        ++q      ",
"       rs+++++++++rr       ",
"        t+++++++++         ",
"                           "};
