/* XPM */
static char * simb2_xpm[] = {
"33 28 83 1",
" 	c #FFFFFF",
".	c #626262",
"+	c #C6C6C6",
"@	c #BDBDBD",
"#	c #000000",
"$	c #A2A2A2",
"%	c #0F0F0F",
"&	c #464646",
"*	c #ABABAB",
"=	c #F1F1F1",
"-	c #E0E0E0",
";	c #020202",
">	c #898989",
",	c #777777",
"'	c #373737",
")	c #474747",
"!	c #565656",
"~	c #757575",
"{	c #BFBFBF",
"]	c #2E2E2E",
"^	c #414141",
"/	c #3B3B3B",
"(	c #202020",
"_	c #B9B9B9",
":	c #FEFEFE",
"<	c #A3A3A3",
"[	c #6E6E6E",
"}	c #060606",
"|	c #CECECE",
"1	c #080808",
"2	c #232323",
"3	c #353535",
"4	c #B8B8B8",
"5	c #949494",
"6	c #4B4B4B",
"7	c #BABABA",
"8	c #454545",
"9	c #E5E5E5",
"0	c #FBFBFB",
"a	c #B4B4B4",
"b	c #F5F5F5",
"c	c #151515",
"d	c #585858",
"e	c #1F1F1F",
"f	c #9B9B9B",
"g	c #C1C1C1",
"h	c #161616",
"i	c #D7D7D7",
"j	c #0C0C0C",
"k	c #4C4C4C",
"l	c #070707",
"m	c #727272",
"n	c #EBEBEB",
"o	c #2D2D2D",
"p	c #A6A6A6",
"q	c #292929",
"r	c #010101",
"s	c #CDCDCD",
"t	c #030303",
"u	c #919191",
"v	c #8B8B8B",
"w	c #ACACAC",
"x	c #C2C2C2",
"y	c #B5B5B5",
"z	c #5D5D5D",
"A	c #767676",
"B	c #F8F8F8",
"C	c #EDEDED",
"D	c #939393",
"E	c #AEAEAE",
"F	c #2C2C2C",
"G	c #DDDDDD",
"H	c #C8C8C8",
"I	c #EFEFEF",
"J	c #FAFAFA",
"K	c #121212",
"L	c #D4D4D4",
"M	c #B1B1B1",
"N	c #FDFDFD",
"O	c #090909",
"P	c #A8A8A8",
"Q	c #818181",
"R	c #BEBEBE",
" ..+                       @..   ",
" ##$                       %##   ",
" ####   #&  *#  =#-  #;   ####   ",
" #####>>,##>#'#>#)###!###~,###   ",
" ###{### *##] ^#/ (##_:##< [##~  ",
" ##} |1+   23          41  5##6  ",
" ##$              7        5##8  ",
" ##$     *#9   0####   ### 5a#8  ",
" ##$    bc#9  def##@eg:### 5h#8  ",
" ##$    ###9  ^#   i#_ ### 5##8  ",
" ##$   #jk#9  ^l   i#_ imn 5##8  ",
" ##o  p# *#9  ^l   i#_     q#r8  ",
" ### s#  *#9  ^l   i#_     5t#8  ",
" ### u#vw###x ^l   i#_     5y#8  ",
" ##z A######] ^#   i#_     5##8  ",
" ##$ BC  D#9  ^#   i#_     5##8  ",
" ###     *#9   ######_     5##8  ",
" ###     *#9   0####E      5##8  ",
" ###                       F##8  ",
" ###n                     G###8  ",
" ####H                    ####8  ",
" #####'                 E#####8  ",
" I#####qqqqqqqqJqqqqqqqqK####L   ",
"  M##########################N   ",
"    O######################P     ",
"     s####################       ",
"     :QRBBBBBBB BBB  B BB:       ",
"                                 "};
