/* XPM */
static char * simb13_xpm[] = {
"29 30 92 2",
"  	c #FFFFFF",
". 	c #777777",
"+ 	c #000000",
"@ 	c #EFEFEF",
"# 	c #F0F0F0",
"$ 	c #FEFEFE",
"% 	c #808080",
"& 	c #ABABAB",
"* 	c #C8C8C8",
"= 	c #1E1E1E",
"- 	c #CFCFCF",
"; 	c #BEBEBE",
"> 	c #B8B8B8",
", 	c #C9C9C9",
"' 	c #E5E5E5",
") 	c #878787",
"! 	c #1A1A1A",
"~ 	c #020202",
"{ 	c #080808",
"] 	c #A9A9A9",
"^ 	c #F9F9F9",
"/ 	c #FCFCFC",
"( 	c #ECECEC",
"_ 	c #989898",
": 	c #232323",
"< 	c #222222",
"[ 	c #0E0E0E",
"} 	c #070707",
"| 	c #D7D7D7",
"1 	c #B9B9B9",
"2 	c #414141",
"3 	c #202020",
"4 	c #C5C5C5",
"5 	c #D8D8D8",
"6 	c #3B3B3B",
"7 	c #D2D2D2",
"8 	c #D4D4D4",
"9 	c #CDCDCD",
"0 	c #E1E1E1",
"a 	c #0F0F0F",
"b 	c #F5F5F5",
"c 	c #898989",
"d 	c #E0E0E0",
"e 	c #333333",
"f 	c #050505",
"g 	c #969696",
"h 	c #BFBFBF",
"i 	c #E7E7E7",
"j 	c #090909",
"k 	c #A0A0A0",
"l 	c #E3E3E3",
"m 	c #2F2F2F",
"n 	c #FBFBFB",
"o 	c #F7F7F7",
"p 	c #D1D1D1",
"q 	c #353535",
"r 	c #B1B1B1",
"s 	c #060606",
"t 	c #272727",
"u 	c #DEDEDE",
"v 	c #4E4E4E",
"w 	c #5F5F5F",
"x 	c #FAFAFA",
"y 	c #282828",
"z 	c #434343",
"A 	c #A6A6A6",
"B 	c #8D8D8D",
"C 	c #8A8A8A",
"D 	c #6A6A6A",
"E 	c #2D2D2D",
"F 	c #4B4B4B",
"G 	c #E9E9E9",
"H 	c #A2A2A2",
"I 	c #858585",
"J 	c #737373",
"K 	c #CCCCCC",
"L 	c #717171",
"M 	c #505050",
"N 	c #F1F1F1",
"O 	c #8E8E8E",
"P 	c #EAEAEA",
"Q 	c #292929",
"R 	c #DADADA",
"S 	c #474747",
"T 	c #4C4C4C",
"U 	c #636363",
"V 	c #404040",
"W 	c #343434",
"X 	c #363636",
"Y 	c #656565",
"Z 	c #111111",
"` 	c #252525",
"                                                          ",
"                                                          ",
"                                                          ",
"    . +                     @ #                   $ +     ",
"    % + &                 * + = -               ; + +     ",
"      > +               , + ' ) +               ! ~ ;     ",
"        + { ]           ^ + ' / (             _ + ~       ",
"          : <         + +         [ }       | + 1         ",
"              +       + +         2 }     3 +             ",
"              4 5 6 7 + 4         8 + 6 6 { 3             ",
"                9 + +               ^ + + 0               ",
"                  a +               b + c                 ",
"                d e + f g           + + h                 ",
"                9 + i + j         } + k + l               ",
"                + +   m 3 + n o p : q r + d               ",
"                + +     & + ' 7 + h   r + +               ",
"              s t u       5 + :         v + w             ",
"            x +         & + j + +         3 y             ",
"            2 +         & + ' z + h       3 +             ",
"          A + B       + + 5     C + D     3 + E           ",
"          + +         + F         G +       | + 1         ",
"          + H     I +               ^ +     | + 1         ",
"        + J K   L + J               / M + N G J + O       ",
"        +       + +                   P + d     + ~       ",
"        +     +                           3 Q   + ~       ",
"    R t S + + T                           U V + + + W     ",
"    X + Y + +                               | + + + +     ",
"    + + + + + + + + + + + + + + Z + + + + + + + + + +     ",
"      ` ` ` ` ` ` ` ` ` ` ` ` ` ` ` `   ` ` ` ` ` ` +     ",
"                                                          "};
