/* XPM */
static char * simb31_xpm[] = {
"40 30 105 2",
"  	c #FFFFFF",
". 	c #6E6E6E",
"+ 	c #A5A5A5",
"@ 	c #F2F2F2",
"# 	c #D2D2D2",
"$ 	c #000000",
"% 	c #262626",
"& 	c #3E3E3E",
"* 	c #CACACA",
"= 	c #1C1C1C",
"- 	c #232323",
"; 	c #020202",
"> 	c #191919",
", 	c #101010",
"' 	c #C7C7C7",
") 	c #131313",
"! 	c #F5F5F5",
"~ 	c #898989",
"{ 	c #4C4C4C",
"] 	c #FCFCFC",
"^ 	c #353535",
"/ 	c #969696",
"( 	c #7F7F7F",
"_ 	c #2D2D2D",
": 	c #FBFBFB",
"< 	c #2C2C2C",
"[ 	c #090909",
"} 	c #F1F1F1",
"| 	c #0A0A0A",
"1 	c #FEFEFE",
"2 	c #030303",
"3 	c #040404",
"4 	c #939393",
"5 	c #484848",
"6 	c #2B2B2B",
"7 	c #464646",
"8 	c #010101",
"9 	c #D6D6D6",
"0 	c #BCBCBC",
"a 	c #4A4A4A",
"b 	c #EEEEEE",
"c 	c #6B6B6B",
"d 	c #212121",
"e 	c #060606",
"f 	c #434343",
"g 	c #080808",
"h 	c #5B5B5B",
"i 	c #575757",
"j 	c #5D5D5D",
"k 	c #6A6A6A",
"l 	c #F0F0F0",
"m 	c #3D3D3D",
"n 	c #292929",
"o 	c #A8A8A8",
"p 	c #F6F6F6",
"q 	c #C8C8C8",
"r 	c #F4F4F4",
"s 	c #1D1D1D",
"t 	c #E2E2E2",
"u 	c #DDDDDD",
"v 	c #9A9A9A",
"w 	c #666666",
"x 	c #4D4D4D",
"y 	c #313131",
"z 	c #B8B8B8",
"A 	c #050505",
"B 	c #E8E8E8",
"C 	c #F7F7F7",
"D 	c #161616",
"E 	c #717171",
"F 	c #6D6D6D",
"G 	c #0E0E0E",
"H 	c #A4A4A4",
"I 	c #656565",
"J 	c #303030",
"K 	c #C6C6C6",
"L 	c #525252",
"M 	c #737373",
"N 	c #919191",
"O 	c #FAFAFA",
"P 	c #616161",
"Q 	c #4B4B4B",
"R 	c #A9A9A9",
"S 	c #0D0D0D",
"T 	c #0B0B0B",
"U 	c #C1C1C1",
"V 	c #0C0C0C",
"W 	c #878787",
"X 	c #949494",
"Y 	c #222222",
"Z 	c #646464",
"` 	c #7E7E7E",
" .	c #242424",
"..	c #CCCCCC",
"+.	c #7B7B7B",
"@.	c #CBCBCB",
"#.	c #0F0F0F",
"$.	c #757575",
"%.	c #373737",
"&.	c #AEAEAE",
"*.	c #B4B4B4",
"=.	c #B1B1B1",
"-.	c #5C5C5C",
";.	c #1F1F1F",
">.	c #8A8A8A",
"                                                                                ",
"          .   + @                                                               ",
"    # $ $ $ $ $ $ $ $ $ $ $ $ $ % $ $ $ $ $ $ $ $ % $ $ $ $ $ $ $ % % % % &     ",
"    * $ = - - - - - - - ; - - - - - - - > $ $ - - > - - - - - - - - - , $ =     ",
"    * $ '                                                               ) =     ",
"    * $ ' ! ~         )     { $ { { { ] ^ /         { (     { _ ^ :     < [     ",
"    * $   } ;         $ |   $ $ ] ] 1 : $ 2 3   4 3 $ 5   6 $ $ $ 3 7   < 8     ",
"    * $ 9 } $       0 $ {   a $ 0 0 b : $ $ $ 0 c $ $ 5   $ d     e f   < g     ",
"    h $   } i     j $ k     $ $ $ $ 0 : $ $ l $ m n $ 5   $ d     e f   < $     ",
"    o $ p q i     $ $       $ $ $ $ r : $ /   $     $ 5   $ e 6 6 $ f   < $     ",
"    * $ ' s i     $ $       $ $ t t   : $ /         $ 5   $ $ $ $ $ f   < $     ",
"    * $ u } i   v $ w       $ $ $ $ 0 : $ /         $ 5   $ $ w w $ f   < $     ",
"    * $   x i   $ y         $ $ $ $ 0 : $ /         $ 5   $ z     A f   < $     ",
"    g $   B i   $ y           C C                                       < $     ",
"    $ $   } $ $ $                                                       < D     ",
"    $ $   E $ $ F                                                       < G     ",
"    H $   $ $ $ $ y         I $ $ $ q : $ /         $     g $ $ J :     < $     ",
"    K $   $ L   $ $ M       $ $ $ $ z : $ N         $ f   $ $ $ $ O     n $     ",
"    $ $   $ i   P $ Q       $ $ P R   : $ /         $ 5   $ S P P 3 f   = T     ",
"    $ $   $ i     $ $       $ $ i i   : $ /         $ U   $ V i i $ f   s =     ",
"    $ $   $ i     $ $       $ $ $ $ 0 : $ /         $ 5   $ $ $ $ O     < =     ",
"    * $   $ i       W $     $ $ $ X   : $ /       9 $ 5   $ g Y $ O     < =     ",
"    Z $   $ i       W $     $ $ ` ` u : $ a ` ` `  .$ +   $ d ..$ +.    < =     ",
"    $ $   $ i       W $     $ $ $ $ 0     $ $ $ $ $ @.    $ d     $ f   < =     ",
"    #.$   @ Z         )     E ) ) ) U     $.) ) ) 0       %.            < =     ",
"    * $ ( H H                 &.*.          H =.                        $ =     ",
"    $ $ $ $ $ $ $ $ $ $ $ $ $ $ $ $ $ $ $ $ $ $ $ $ $ $ -.-.$ $ $ $ $ $ $ =     ",
"    * $ $ $ $ $ $ $ $ $ $ $ $ $ $ $ $ $ $ $ $ $ $ $ $ $ $ $ ;.>.$ $ $ $ $ $     ",
"                                                                          Q     ",
"                                                                                "};
